<svg xmlns="http://www.w3.org/2000/svg" viewBox="0 0 1040 560" width="100%" role="img" aria-label="D10 MRO and asset lifecycle" xmlns:c2pa="http://c2pa.org/manifest"><metadata><c2pa:manifest>AAAWgmp1bWIAAAAeanVtZGMycGEAEQAQgAAAqgA4m3EDYzJwYQAAABZcanVtYgAAAEdqdW1kYzJtYQARABCAAACqADibcQN1cm46YzJwYTo0NzRjNzcxNi1iYjAzLTQwYmItYmJkMy1kMGYxZmNkN2JiMWMAAAADl2p1bWIAAAApanVtZGMyYXMAEQAQgAAAqgA4m3EDYzJwYS5hc3NlcnRpb25zAAAAALxqdW1iAAAARGp1bWRjYm9yABEAEIAAAKoAOJtxE2MycGEuaW5ncmVkaWVudC52MwAAAAAYYzJzaMDtDTifZOE1/nzG/fFr/BkAAABwY2JvcqNpZGM6Zm9ybWF0bWltYWdlL3N2Zyt4bWxqaW5zdGFuY2VJRHgseG1wOmlpZDplMGJiMzk3YS1hMGU5LTQ2OGUtODkzOS0wM2JmMzliZDY2NjRscmVsYXRpb25zaGlwaHBhcmVudE9mAAAB4mp1bWIAAABBanVtZGNib3IAEQAQgAAAqgA4m3ETYzJwYS5hY3Rpb25zLnYyAAAAABhjMnNoQ/0jZ92lM3WjhM0dz8O8YAAAAZljYm9yomdhY3Rpb25zgqJmYWN0aW9ua2MycGEub3BlbmVkanBhcmFtZXRlcnOha2luZ3JlZGllbnRzgaJjdXJseC1zZWxmI2p1bWJmPWMycGEuYXNzZXJ0aW9ucy9jMnBhLmluZ3JlZGllbnQudjNkaGFzaFggEdFa/ZHJLDKGprzwKCmVoEUcEuSqdEQjz0PIzwc76IekZmFjdGlvbngdY29tLmFudGhyb3BpYy5jbGF1ZGUucHJvdmlkZWRqcGFyYW1ldGVyc6F4H2NvbS5hbnRocm9waWMub3JpZ2luLWNvbmZpZGVuY2VndW5rbm93bmtkZXNjcmlwdGlvbnhmQ2xhdWRlIHByb3ZpZGVkIHRoaXMgZmlsZSBhdCB0aGUgcmVxdWVzdCBvZiBhIHVzZXIgYW5kIG1heSBoYXZlIGNyZWF0ZWQgb3IgbW9kaWZpZWQgdGhlIGZpbGUgY29udGVudHMubXNvZnR3YXJlQWdlbnShZG5hbWVmQ2xhdWRlcmFsbEFjdGlvbnNJbmNsdWRlZPUAAADIanVtYgAAAEBqdW1kY2JvcgARABCAAACqADibcRNjMnBhLmhhc2guZGF0YQAAAAAYYzJzaKEOzmY5TC+A0D/LKjHsvVAAAACAY2JvcqVjYWxnZnNoYTI1NmNwYWRNAAAAAAAAAAAAAAAAAGRoYXNoWCA5DTRG51tTYS7d1h6cX7SBsdPd53ajbTDpA22Zxv9n3mRuYW1lbmp1bWJmIG1hbmlmZXN0amV4Y2x1c2lvbnOBomVzdGFydBi/Zmxlbmd0aBkeBAAAAj5qdW1iAAAAJ2p1bWRjMmNsABEAEIAAAKoAOJtxA2MycGEuY2xhaW0udjIAAAACD2Nib3KlY2FsZ2ZzaGEyNTZpc2lnbmF0dXJleE1zZWxmI2p1bWJmPS9jMnBhL3VybjpjMnBhOjQ3NGM3NzE2LWJiMDMtNDBiYi1iYmQzLWQwZjFmY2Q3YmIxYy9jMnBhLnNpZ25hdHVyZWppbnN0YW5jZUlEeCx4bXA6aWlkOmNmZGQ2YWMxLWRmMGYtNGI0NS05MDA3LTkzNWJkZjQ1MjIxMHJjcmVhdGVkX2Fzc2VydGlvbnODomN1cmx4LXNlbGYjanVtYmY9YzJwYS5hc3NlcnRpb25zL2MycGEuaW5ncmVkaWVudC52M2RoYXNoWCAR0Vr9kcksMoamvPAoKZWgRRwS5Kp0RCPPQ8jPBzvoh6JjdXJseCpzZWxmI2p1bWJmPWMycGEuYXNzZXJ0aW9ucy9jMnBhLmFjdGlvbnMudjJkaGFzaFgggkilu8Y3PUzyH+vK57jCDHCCFbq/+4nIH6WnRad3ZtuiY3VybHgpc2VsZiNqdW1iZj1jMnBhLmFzc2VydGlvbnMvYzJwYS5oYXNoLmRhdGFkaGFzaFggtS/DGUr5WQaN6JUzMQkQA9IX+iWQ6D1CW5lua9CnIjt0Y2xhaW1fZ2VuZXJhdG9yX2luZm+jZG5hbWVvQW50aHJvcGljIEZpbGVzZ3ZlcnNpb25lMS4wLjBrc3BlY1ZlcnNpb25lMi40LjAAABA4anVtYgAAAChqdW1kYzJjcwARABCAAACqADibcQNjMnBhLnNpZ25hdHVyZQAAABAIY2JvctKEWQISogEmGCFZAgowggIGMIIBjaADAgECAhRA5aAK7sI50L64g/oGQgU9Z1UTADAKBggqhkjOPQQDAzBJMRcwFQYDVQQKEw5BbnRocm9waWMsIFBCQzEuMCwGA1UEAxMlQW50aHJvcGljIENvbnRlbnQgQ3JlZGVudGlhbHMgUm9vdCBDQTAeFw0yNjA4MDcxODQzNTZaFw0yODA4MDYxOTQzNTZaMEQxFzAVBgNVBAoTDkFudGhyb3BpYywgUEJDMSkwJwYDVQQDEyBBbnRocm9waWMgQ2xhdWRlIENvbnRlbnQgU2lnbmluZzBZMBMGByqGSM49AgEGCCqGSM49AwEHA0IABJh6CmvLUBgFFNU0vUKlOVtE6djd17L5SuwX0LemFisBM3dkd/3cyjxFA3Qo5S46fX0/ihY0VZ7mfb9KF703t5OjWDBWMA4GA1UdDwEB/wQEAwIHgDAVBgNVHSUEDjAMBgorBgEEAYPoXgIBMAwGA1UdEwEB/wQCMAAwHwYDVR0jBBgwFoAUzlHiBIFOZFsj+OPEz5o+nMHXXMIwCgYIKoZIzj0EAwMDZwAwZAIwMXMdFJ4BetLLVY7ORuE9noqbbAZOZn/aArXyTwFAZfKrPzxF2vPoJNf1+UCdg1XGAjBwX1zd9WGqYkqmL5SFqw1QySjr1zJfpJM9+1rdDwSPLMOPOjKuiXjoU/pUUeG9RwmhY3BhZFkNngAAAAAAAAAAAAAAAAAAAAAAAAAAAAAAAAAAAAAAAAAAAAAAAAAAAAAAAAAAAAAAAAAAAAAAAAAAAAAAAAAAAAAAAAAAAAAAAAAAAAAAAAAAAAAAAAAAAAAAAAAAAAAAAAAAAAAAAAAAAAAAAAAAAAAAAAAAAAAAAAAAAAAAAAAAAAAAAAAAAAAAAAAAAAAAAAAAAAAAAAAAAAAAAAAAAAAAAAAAAAAAAAAAAAAAAAAAAAAAAAAAAAAAAAAAAAAAAAAAAAAAAAAAAAAAAAAAAAAAAAAAAAAAAAAAAAAAAAAAAAAAAAAAAAAAAAAAAAAAAAAAAAAAAAAAAAAAAAAAAAAAAAAAAAAAAAAAAAAAAAAAAAAAAAAAAAAAAAAAAAAAAAAAAAAAAAAAAAAAAAAAAAAAAAAAAAAAAAAAAAAAAAAAAAAAAAAAAAAAAAAAAAAAAAAAAAAAAAAAAAAAAAAAAAAAAAAAAAAAAAAAAAAAAAAAAAAAAAAAAAAAAAAAAAAAAAAAAAAAAAAAAAAAAAAAAAAAAAAAAAAAAAAAAAAAAAAAAAAAAAAAAAAAAAAAAAAAAAAAAAAAAAAAAAAAAAAAAAAAAAAAAAAAAAAAAAAAAAAAAAAAAAAAAAAAAAAAAAAAAAAAAAAAAAAAAAAAAAAAAAAAAAAAAAAAAAAAAAAAAAAAAAAAAAAAAAAAAAAAAAAAAAAAAAAAAAAAAAAAAAAAAAAAAAAAAAAAAAAAAAAAAAAAAAAAAAAAAAAAAAAAAAAAAAAAAAAAAAAAAAAAAAAAAAAAAAAAAAAAAAAAAAAAAAAAAAAAAAAAAAAAAAAAAAAAAAAAAAAAAAAAAAAAAAAAAAAAAAAAAAAAAAAAAAAAAAAAAAAAAAAAAAAAAAAAAAAAAAAAAAAAAAAAAAAAAAAAAAAAAAAAAAAAAAAAAAAAAAAAAAAAAAAAAAAAAAAAAAAAAAAAAAAAAAAAAAAAAAAAAAAAAAAAAAAAAAAAAAAAAAAAAAAAAAAAAAAAAAAAAAAAAAAAAAAAAAAAAAAAAAAAAAAAAAAAAAAAAAAAAAAAAAAAAAAAAAAAAAAAAAAAAAAAAAAAAAAAAAAAAAAAAAAAAAAAAAAAAAAAAAAAAAAAAAAAAAAAAAAAAAAAAAAAAAAAAAAAAAAAAAAAAAAAAAAAAAAAAAAAAAAAAAAAAAAAAAAAAAAAAAAAAAAAAAAAAAAAAAAAAAAAAAAAAAAAAAAAAAAAAAAAAAAAAAAAAAAAAAAAAAAAAAAAAAAAAAAAAAAAAAAAAAAAAAAAAAAAAAAAAAAAAAAAAAAAAAAAAAAAAAAAAAAAAAAAAAAAAAAAAAAAAAAAAAAAAAAAAAAAAAAAAAAAAAAAAAAAAAAAAAAAAAAAAAAAAAAAAAAAAAAAAAAAAAAAAAAAAAAAAAAAAAAAAAAAAAAAAAAAAAAAAAAAAAAAAAAAAAAAAAAAAAAAAAAAAAAAAAAAAAAAAAAAAAAAAAAAAAAAAAAAAAAAAAAAAAAAAAAAAAAAAAAAAAAAAAAAAAAAAAAAAAAAAAAAAAAAAAAAAAAAAAAAAAAAAAAAAAAAAAAAAAAAAAAAAAAAAAAAAAAAAAAAAAAAAAAAAAAAAAAAAAAAAAAAAAAAAAAAAAAAAAAAAAAAAAAAAAAAAAAAAAAAAAAAAAAAAAAAAAAAAAAAAAAAAAAAAAAAAAAAAAAAAAAAAAAAAAAAAAAAAAAAAAAAAAAAAAAAAAAAAAAAAAAAAAAAAAAAAAAAAAAAAAAAAAAAAAAAAAAAAAAAAAAAAAAAAAAAAAAAAAAAAAAAAAAAAAAAAAAAAAAAAAAAAAAAAAAAAAAAAAAAAAAAAAAAAAAAAAAAAAAAAAAAAAAAAAAAAAAAAAAAAAAAAAAAAAAAAAAAAAAAAAAAAAAAAAAAAAAAAAAAAAAAAAAAAAAAAAAAAAAAAAAAAAAAAAAAAAAAAAAAAAAAAAAAAAAAAAAAAAAAAAAAAAAAAAAAAAAAAAAAAAAAAAAAAAAAAAAAAAAAAAAAAAAAAAAAAAAAAAAAAAAAAAAAAAAAAAAAAAAAAAAAAAAAAAAAAAAAAAAAAAAAAAAAAAAAAAAAAAAAAAAAAAAAAAAAAAAAAAAAAAAAAAAAAAAAAAAAAAAAAAAAAAAAAAAAAAAAAAAAAAAAAAAAAAAAAAAAAAAAAAAAAAAAAAAAAAAAAAAAAAAAAAAAAAAAAAAAAAAAAAAAAAAAAAAAAAAAAAAAAAAAAAAAAAAAAAAAAAAAAAAAAAAAAAAAAAAAAAAAAAAAAAAAAAAAAAAAAAAAAAAAAAAAAAAAAAAAAAAAAAAAAAAAAAAAAAAAAAAAAAAAAAAAAAAAAAAAAAAAAAAAAAAAAAAAAAAAAAAAAAAAAAAAAAAAAAAAAAAAAAAAAAAAAAAAAAAAAAAAAAAAAAAAAAAAAAAAAAAAAAAAAAAAAAAAAAAAAAAAAAAAAAAAAAAAAAAAAAAAAAAAAAAAAAAAAAAAAAAAAAAAAAAAAAAAAAAAAAAAAAAAAAAAAAAAAAAAAAAAAAAAAAAAAAAAAAAAAAAAAAAAAAAAAAAAAAAAAAAAAAAAAAAAAAAAAAAAAAAAAAAAAAAAAAAAAAAAAAAAAAAAAAAAAAAAAAAAAAAAAAAAAAAAAAAAAAAAAAAAAAAAAAAAAAAAAAAAAAAAAAAAAAAAAAAAAAAAAAAAAAAAAAAAAAAAAAAAAAAAAAAAAAAAAAAAAAAAAAAAAAAAAAAAAAAAAAAAAAAAAAAAAAAAAAAAAAAAAAAAAAAAAAAAAAAAAAAAAAAAAAAAAAAAAAAAAAAAAAAAAAAAAAAAAAAAAAAAAAAAAAAAAAAAAAAAAAAAAAAAAAAAAAAAAAAAAAAAAAAAAAAAAAAAAAAAAAAAAAAAAAAAAAAAAAAAAAAAAAAAAAAAAAAAAAAAAAAAAAAAAAAAAAAAAAAAAAAAAAAAAAAAAAAAAAAAAAAAAAAAAAAAAAAAAAAAAAAAAAAAAAAAAAAAAAAAAAAAAAAAAAAAAAAAAAAAAAAAAAAAAAAAAAAAAAAAAAAAAAAAAAAAAAAAAAAAAAAAAAAAAAAAAAAAAAAAAAAAAAAAAAAAAAAAAAAAAAAAAAAAAAAAAAAAAAAAAAAAAAAAAAAAAAAAAAAAAAAAAAAAAAAAAAAAAAAAAAAAAAAAAAAAAAAAAAAAAAAAAAAAAAAAAAAAAAAAAAAAAAAAAAAAAAAAAAAAAAAAAAAAAAAAAAAAAAAAAAAAAAAAAAAAAAAAAAAAAAAAAAAAAAAAAAAAAAAAAAAAAAAAAAAAAAAAAAAAAAAAAAAAAAAAAAAAAAAAAAAAAAAAAAAAAAAAAAAAAAAAAAAAAAAAAAAAAAAAAAAAAAAAAAAAAAAAAAAAAAAAAAAAAAAAAAAAAAAAAAAAAAAAAAAAAAAAAAAAAAAAAAAAAAAAAAAAAAAAAAAAAAAAAAAAAAAAAAAAAAAAAAAAAAAAAAAAAAAAAAAAAAAAAAAAAAAAAAAAAAAAAAAAAAAAAAAAAAAAAAAAAAAAAAAAAAAAAAAAAAAAAAAAAAAAAAAAAAAAAAAAAAAAAAAAAAAAAAAAAAAAAAAAAAAAAAAAAAAAAAAAAAAAAAAAAAAAAAAAAAAAAAAAAAAAAAAAAAAAAAAAAAAAAAAAAAAAAAAAAAAAAAAAAAAAAAAAAAAAAAAAAAAAAAAAAAAAAAAAAAAAAAAAAAAAAAAAAAAAAAAAAAAAAAAAAAAAAAAAAAAAAAAAAAAAAAAAAAAAAAAAAAAAAAAAAAAAAAAAAAAAAAAAAAAAAAAAAAAAAAAAAAAAAAAAAAAAAAAAAAAAAAAAAAAAAAAAAAAAAAAAAAAAAAAAAAAAAAAAAAAAAAAAAAAAAAAAAAAAAAAAAAAAAAAAAAAAAAAAAAAAAAAAAAAAAAAAAAAAAAAAAAAAAAAAAAAAAAAAAAAAAAAAAAAAAAAAAAAAAAAAAAAAAAAAAAAAAAAAAAAAAAAAAAAAAAAAAAAAAAAAAAAAAAAAAAAAAAAAAAAAAAAAAAAAAAAAAAAAAAAAAAAAAAAAAAAAAAAAAAAAAAAAAAAAAAAAAAAAAAAAAAAAAAAAAAAAAAAAAAAAAAAAAAAAAAAAAAAAAAAAAAAAAAAAAAAAAAAAAAAAAAAAAAAAAAAAAAAAAAAAAAAAAAAAAAAAAAAAAAAAAAAAAAAAAAAAAAAAAAAAAAAAAAAAAAAAAAAAAAAAAAAAAAAAAAAAAAAAAAAAAAAAAAAAAAAAAAAAAAAAAAAAAAAAAAAAAAAAAAAAAAAAAAAAAAAAAAAAAAAAAAAAAAAAAAAAAAAAAAAAAAAAAAAAAAAAAAAAAAAAAAAAAAAAAAAAAAAAAAAAAAAAAAAAAAAAAAAAAAAAAAAAAAAAAAAAAAAAAAAAAAAAAAAAAAAAAAAAAAAAAAAAAAAAAAAAAAAAAAAAAAAAAAAAAAAAAAAAAAAAAAAAAAAAAAAAAAAAAAAAAAAAAAAAAAAAAAAAAAAAAAAAAAAAAAAAAAAAAAAAAAAAAAAAAAAAAAAAAAAAAAAAAAAAAAAAAAAAAAAAAAAAAAAAAAAAAAAAAAAAAAAAAAAAAAAAAAAAAAAAAAAAAAAAAAAAAAAAAAAAAAAAAPZYQEuTkYpMYdRYw/PfyRLkVDjmb9I01awgX35pNAnHlH5xzP285mFHgUIsZNAQ8RdPLqNJBrn4Svyafbo1Ivvcrlk=</c2pa:manifest></metadata><title>D10 MRO and asset lifecycle</title><style>@font-face{font-family:'IBM Plex Sans Condensed';font-weight:400;src:url('../fonts/ibm-plex-sans-condensed-latin-400-normal.woff2') format('woff2');}@font-face{font-family:'IBM Plex Sans Condensed';font-weight:500;src:url('../fonts/ibm-plex-sans-condensed-latin-500-normal.woff2') format('woff2');}@font-face{font-family:'IBM Plex Sans Condensed';font-weight:600;src:url('../fonts/ibm-plex-sans-condensed-latin-600-normal.woff2') format('woff2');}@font-face{font-family:'IBM Plex Sans Condensed';font-weight:700;src:url('../fonts/ibm-plex-sans-condensed-latin-700-normal.woff2') format('woff2');}@font-face{font-family:'IBM Plex Sans';font-weight:300;src:url('../fonts/ibm-plex-sans-latin-300-normal.woff2') format('woff2');}@font-face{font-family:'IBM Plex Sans';font-weight:400;src:url('../fonts/ibm-plex-sans-latin-400-normal.woff2') format('woff2');}@font-face{font-family:'IBM Plex Sans';font-weight:500;src:url('../fonts/ibm-plex-sans-latin-500-normal.woff2') format('woff2');}@font-face{font-family:'IBM Plex Sans';font-weight:600;src:url('../fonts/ibm-plex-sans-latin-600-normal.woff2') format('woff2');}@font-face{font-family:'IBM Plex Sans';font-weight:700;src:url('../fonts/ibm-plex-sans-latin-700-normal.woff2') format('woff2');}@font-face{font-family:'IBM Plex Mono';font-weight:400;src:url('../fonts/ibm-plex-mono-latin-400-normal.woff2') format('woff2');}@font-face{font-family:'IBM Plex Mono';font-weight:500;src:url('../fonts/ibm-plex-mono-latin-500-normal.woff2') format('woff2');}@font-face{font-family:'Space Grotesk';font-weight:400;src:url('../fonts/space-grotesk-latin-400-normal.woff2') format('woff2');}@font-face{font-family:'Space Grotesk';font-weight:500;src:url('../fonts/space-grotesk-latin-500-normal.woff2') format('woff2');}@font-face{font-family:'Space Grotesk';font-weight:600;src:url('../fonts/space-grotesk-latin-600-normal.woff2') format('woff2');}@font-face{font-family:'Space Grotesk';font-weight:700;src:url('../fonts/space-grotesk-latin-700-normal.woff2') format('woff2');}</style><defs><marker id="e-syncL" viewBox="0 0 10 10" refX="9" refY="5" markerWidth="7" markerHeight="7" orient="auto" markerUnits="userSpaceOnUse"><path d="M0,0 L10,5 L0,10 L2.5,5 Z" fill="#0B1B2B"/></marker><marker id="s-syncL" viewBox="0 0 10 10" refX="1" refY="5" markerWidth="7" markerHeight="7" orient="auto" markerUnits="userSpaceOnUse"><path d="M10,0 L0,5 L10,10 L7.5,5 Z" fill="#0B1B2B"/></marker><marker id="e-syncD" viewBox="0 0 10 10" refX="9" refY="5" markerWidth="7" markerHeight="7" orient="auto" markerUnits="userSpaceOnUse"><path d="M0,0 L10,5 L0,10 L2.5,5 Z" fill="#DCE6F2"/></marker><marker id="s-syncD" viewBox="0 0 10 10" refX="1" refY="5" markerWidth="7" markerHeight="7" orient="auto" markerUnits="userSpaceOnUse"><path d="M10,0 L0,5 L10,10 L7.5,5 Z" fill="#DCE6F2"/></marker><marker id="e-asyncL" viewBox="0 0 10 10" refX="9" refY="5" markerWidth="7" markerHeight="7" orient="auto" markerUnits="userSpaceOnUse"><path d="M0,0 L10,5 L0,10 L2.5,5 Z" fill="#35C2D0"/></marker><marker id="s-asyncL" viewBox="0 0 10 10" refX="1" refY="5" markerWidth="7" markerHeight="7" orient="auto" markerUnits="userSpaceOnUse"><path d="M10,0 L0,5 L10,10 L7.5,5 Z" fill="#35C2D0"/></marker><marker id="e-asyncD" viewBox="0 0 10 10" refX="9" refY="5" markerWidth="7" markerHeight="7" orient="auto" markerUnits="userSpaceOnUse"><path d="M0,0 L10,5 L0,10 L2.5,5 Z" fill="#35C2D0"/></marker><marker id="s-asyncD" viewBox="0 0 10 10" refX="1" refY="5" markerWidth="7" markerHeight="7" orient="auto" markerUnits="userSpaceOnUse"><path d="M10,0 L0,5 L10,10 L7.5,5 Z" fill="#35C2D0"/></marker><marker id="e-dataL" viewBox="0 0 10 10" refX="9" refY="5" markerWidth="7" markerHeight="7" orient="auto" markerUnits="userSpaceOnUse"><path d="M1,1 L9,5 L1,9" fill="none" stroke="#2475D0" stroke-width="1.6"/></marker><marker id="s-dataL" viewBox="0 0 10 10" refX="1" refY="5" markerWidth="7" markerHeight="7" orient="auto" markerUnits="userSpaceOnUse"><path d="M9,1 L1,5 L9,9" fill="none" stroke="#2475D0" stroke-width="1.6"/></marker><marker id="e-dataD" viewBox="0 0 10 10" refX="9" refY="5" markerWidth="7" markerHeight="7" orient="auto" markerUnits="userSpaceOnUse"><path d="M1,1 L9,5 L1,9" fill="none" stroke="#6FA8EA" stroke-width="1.6"/></marker><marker id="s-dataD" viewBox="0 0 10 10" refX="1" refY="5" markerWidth="7" markerHeight="7" orient="auto" markerUnits="userSpaceOnUse"><path d="M9,1 L1,5 L9,9" fill="none" stroke="#6FA8EA" stroke-width="1.6"/></marker><marker id="e-obsL" viewBox="0 0 10 10" refX="9" refY="5" markerWidth="7" markerHeight="7" orient="auto" markerUnits="userSpaceOnUse"><path d="M1,1 L9,5 L1,9" fill="none" stroke="#8A99AB" stroke-width="1.6"/></marker><marker id="s-obsL" viewBox="0 0 10 10" refX="1" refY="5" markerWidth="7" markerHeight="7" orient="auto" markerUnits="userSpaceOnUse"><path d="M9,1 L1,5 L9,9" fill="none" stroke="#8A99AB" stroke-width="1.6"/></marker><marker id="e-obsD" viewBox="0 0 10 10" refX="9" refY="5" markerWidth="7" markerHeight="7" orient="auto" markerUnits="userSpaceOnUse"><path d="M1,1 L9,5 L1,9" fill="none" stroke="#7F92A8" stroke-width="1.6"/></marker><marker id="s-obsD" viewBox="0 0 10 10" refX="1" refY="5" markerWidth="7" markerHeight="7" orient="auto" markerUnits="userSpaceOnUse"><path d="M9,1 L1,5 L9,9" fill="none" stroke="#7F92A8" stroke-width="1.6"/></marker><marker id="e-humanL" viewBox="0 0 10 10" refX="9" refY="5" markerWidth="7" markerHeight="7" orient="auto" markerUnits="userSpaceOnUse"><path d="M0,0 L10,5 L0,10 L2.5,5 Z" fill="#B7791F"/></marker><marker id="s-humanL" viewBox="0 0 10 10" refX="1" refY="5" markerWidth="7" markerHeight="7" orient="auto" markerUnits="userSpaceOnUse"><path d="M10,0 L0,5 L10,10 L7.5,5 Z" fill="#B7791F"/></marker><marker id="e-humanD" viewBox="0 0 10 10" refX="9" refY="5" markerWidth="7" markerHeight="7" orient="auto" markerUnits="userSpaceOnUse"><path d="M0,0 L10,5 L0,10 L2.5,5 Z" fill="#F2B84B"/></marker><marker id="s-humanD" viewBox="0 0 10 10" refX="1" refY="5" markerWidth="7" markerHeight="7" orient="auto" markerUnits="userSpaceOnUse"><path d="M10,0 L0,5 L10,10 L7.5,5 Z" fill="#F2B84B"/></marker><marker id="e-feedbackL" viewBox="0 0 10 10" refX="9" refY="5" markerWidth="7" markerHeight="7" orient="auto" markerUnits="userSpaceOnUse"><path d="M0,0 L10,5 L0,10 L2.5,5 Z" fill="#238A75"/></marker><marker id="s-feedbackL" viewBox="0 0 10 10" refX="1" refY="5" markerWidth="7" markerHeight="7" orient="auto" markerUnits="userSpaceOnUse"><path d="M10,0 L0,5 L10,10 L7.5,5 Z" fill="#238A75"/></marker><marker id="e-feedbackD" viewBox="0 0 10 10" refX="9" refY="5" markerWidth="7" markerHeight="7" orient="auto" markerUnits="userSpaceOnUse"><path d="M0,0 L10,5 L0,10 L2.5,5 Z" fill="#63D3B0"/></marker><marker id="s-feedbackD" viewBox="0 0 10 10" refX="1" refY="5" markerWidth="7" markerHeight="7" orient="auto" markerUnits="userSpaceOnUse"><path d="M10,0 L0,5 L10,10 L7.5,5 Z" fill="#63D3B0"/></marker><marker id="e-prohibitedL" viewBox="0 0 10 10" refX="9" refY="5" markerWidth="7" markerHeight="7" orient="auto" markerUnits="userSpaceOnUse"><path d="M1,1 L9,9 M9,1 L1,9" stroke="#F07861" stroke-width="1.8"/></marker><marker id="s-prohibitedL" viewBox="0 0 10 10" refX="1" refY="5" markerWidth="7" markerHeight="7" orient="auto" markerUnits="userSpaceOnUse"><path d="M1,1 L9,9 M9,1 L1,9" stroke="#F07861" stroke-width="1.8"/></marker><marker id="e-prohibitedD" viewBox="0 0 10 10" refX="9" refY="5" markerWidth="7" markerHeight="7" orient="auto" markerUnits="userSpaceOnUse"><path d="M1,1 L9,9 M9,1 L1,9" stroke="#F07861" stroke-width="1.8"/></marker><marker id="s-prohibitedD" viewBox="0 0 10 10" refX="1" refY="5" markerWidth="7" markerHeight="7" orient="auto" markerUnits="userSpaceOnUse"><path d="M1,1 L9,9 M9,1 L1,9" stroke="#F07861" stroke-width="1.8"/></marker><marker id="e-proposedL" viewBox="0 0 10 10" refX="9" refY="5" markerWidth="7" markerHeight="7" orient="auto" markerUnits="userSpaceOnUse"><path d="M0,0 L10,5 L0,10 L2.5,5 Z" fill="#7B61D9"/></marker><marker id="s-proposedL" viewBox="0 0 10 10" refX="1" refY="5" markerWidth="7" markerHeight="7" orient="auto" markerUnits="userSpaceOnUse"><path d="M10,0 L0,5 L10,10 L7.5,5 Z" fill="#7B61D9"/></marker><marker id="e-proposedD" viewBox="0 0 10 10" refX="9" refY="5" markerWidth="7" markerHeight="7" orient="auto" markerUnits="userSpaceOnUse"><path d="M0,0 L10,5 L0,10 L2.5,5 Z" fill="#A996F0"/></marker><marker id="s-proposedD" viewBox="0 0 10 10" refX="1" refY="5" markerWidth="7" markerHeight="7" orient="auto" markerUnits="userSpaceOnUse"><path d="M10,0 L0,5 L10,10 L7.5,5 Z" fill="#A996F0"/></marker><pattern id="hatch" width="6" height="6" patternUnits="userSpaceOnUse" patternTransform="rotate(45)"><line x1="0" y1="0" x2="0" y2="6" stroke="#F07861" stroke-width="1" opacity="0.35"/></pattern><pattern id="grid" width="24" height="24" patternUnits="userSpaceOnUse"><path d="M24,0 L0,0 0,24" fill="none" stroke="#1A3A5C" stroke-width="0.5" opacity="0.55"/></pattern></defs><rect x="40.0" y="70.0" width="158.0" height="62.0" rx="7" fill="#FFFFFF" stroke="#2475D0" stroke-width="1.2"/><path d="M40.6,77.0 Q40.6,70.6 47.0,70.6 L47.0,131.4 Q40.6,131.4 40.6,125.0 Z" fill="#2475D0"/><rect x="40.6" y="70.6" width="4.2" height="60.8" rx="1.5" fill="#2475D0" stroke="none" stroke-width="1"/><text x="52.0" y="89.5" font-family="'IBM Plex Sans Condensed', 'DejaVu Sans'" font-size="11.5" font-weight="600" fill="#0B1B2B" text-anchor="start">Asset</text><text x="52.0" y="102.7" font-family="'IBM Plex Sans Condensed', 'DejaVu Sans'" font-size="11.5" font-weight="600" fill="#0B1B2B" text-anchor="start">onboarding</text><text x="52.0" y="116.1" font-family="'IBM Plex Mono', 'DejaVu Sans'" font-size="7.4" font-weight="400" fill="#5B6B7F" text-anchor="start">registry · suite family</text><text x="190.0" y="125.0" font-family="'IBM Plex Mono', 'DejaVu Sans'" font-size="8" font-weight="600" fill="#8A99AB" text-anchor="end">01</text><rect x="232.0" y="70.0" width="158.0" height="62.0" rx="7" fill="#FFFFFF" stroke="#2475D0" stroke-width="1.2"/><path d="M232.6,77.0 Q232.6,70.6 239.0,70.6 L239.0,131.4 Q232.6,131.4 232.6,125.0 Z" fill="#2475D0"/><rect x="232.6" y="70.6" width="4.2" height="60.8" rx="1.5" fill="#2475D0" stroke="none" stroke-width="1"/><text x="244.0" y="89.5" font-family="'IBM Plex Sans Condensed', 'DejaVu Sans'" font-size="11.5" font-weight="600" fill="#0B1B2B" text-anchor="start">Configuration</text><text x="244.0" y="102.9" font-family="'IBM Plex Mono', 'DejaVu Sans'" font-size="7.4" font-weight="400" fill="#5B6B7F" text-anchor="start">serials · installations</text><text x="382.0" y="125.0" font-family="'IBM Plex Mono', 'DejaVu Sans'" font-size="8" font-weight="600" fill="#8A99AB" text-anchor="end">02</text><rect x="424.0" y="70.0" width="158.0" height="62.0" rx="7" fill="#FFFFFF" stroke="#35C2D0" stroke-width="1.2"/><path d="M424.6,77.0 Q424.6,70.6 431.0,70.6 L431.0,131.4 Q424.6,131.4 424.6,125.0 Z" fill="#35C2D0"/><rect x="424.6" y="70.6" width="4.2" height="60.8" rx="1.5" fill="#35C2D0" stroke="none" stroke-width="1"/><text x="436.0" y="89.5" font-family="'IBM Plex Sans Condensed', 'DejaVu Sans'" font-size="11.5" font-weight="600" fill="#0B1B2B" text-anchor="start">Utilisation</text><text x="436.0" y="102.9" font-family="'IBM Plex Mono', 'DejaVu Sans'" font-size="7.4" font-weight="400" fill="#5B6B7F" text-anchor="start">flights · hours · cycles</text><text x="574.0" y="125.0" font-family="'IBM Plex Mono', 'DejaVu Sans'" font-size="8" font-weight="600" fill="#8A99AB" text-anchor="end">03</text><rect x="616.0" y="70.0" width="158.0" height="62.0" rx="7" fill="#FFFFFF" stroke="#238A75" stroke-width="1.2"/><path d="M616.6,77.0 Q616.6,70.6 623.0,70.6 L623.0,131.4 Q616.6,131.4 616.6,125.0 Z" fill="#238A75"/><rect x="616.6" y="70.6" width="4.2" height="60.8" rx="1.5" fill="#238A75" stroke="none" stroke-width="1"/><text x="628.0" y="89.5" font-family="'IBM Plex Sans Condensed', 'DejaVu Sans'" font-size="11.5" font-weight="600" fill="#0B1B2B" text-anchor="start">Inspection</text><text x="628.0" y="102.9" font-family="'IBM Plex Mono', 'DejaVu Sans'" font-size="7.4" font-weight="400" fill="#5B6B7F" text-anchor="start">requirements · RII</text><text x="766.0" y="125.0" font-family="'IBM Plex Mono', 'DejaVu Sans'" font-size="8" font-weight="600" fill="#8A99AB" text-anchor="end">04</text><rect x="808.0" y="70.0" width="158.0" height="62.0" rx="7" fill="#FFFFFF" stroke="#F2B84B" stroke-width="1.2"/><path d="M808.6,77.0 Q808.6,70.6 815.0,70.6 L815.0,131.4 Q808.6,131.4 808.6,125.0 Z" fill="#F2B84B"/><rect x="808.6" y="70.6" width="4.2" height="60.8" rx="1.5" fill="#F2B84B" stroke="none" stroke-width="1"/><text x="820.0" y="89.5" font-family="'IBM Plex Sans Condensed', 'DejaVu Sans'" font-size="11.5" font-weight="600" fill="#0B1B2B" text-anchor="start">Defect /</text><text x="820.0" y="102.7" font-family="'IBM Plex Sans Condensed', 'DejaVu Sans'" font-size="11.5" font-weight="600" fill="#0B1B2B" text-anchor="start">finding</text><text x="820.0" y="116.1" font-family="'IBM Plex Mono', 'DejaVu Sans'" font-size="7.4" font-weight="400" fill="#5B6B7F" text-anchor="start">severity · disposition</text><text x="958.0" y="125.0" font-family="'IBM Plex Mono', 'DejaVu Sans'" font-size="8" font-weight="600" fill="#8A99AB" text-anchor="end">05</text><rect x="842.0" y="196.0" width="158.0" height="62.0" rx="7" fill="#FFFFFF" stroke="#238A75" stroke-width="1.2"/><path d="M842.6,203.0 Q842.6,196.6 849.0,196.6 L849.0,257.4 Q842.6,257.4 842.6,251.0 Z" fill="#238A75"/><rect x="842.6" y="196.6" width="4.2" height="60.8" rx="1.5" fill="#238A75" stroke="none" stroke-width="1"/><text x="854.0" y="215.5" font-family="'IBM Plex Sans Condensed', 'DejaVu Sans'" font-size="11.5" font-weight="600" fill="#0B1B2B" text-anchor="start">Work order</text><text x="854.0" y="228.9" font-family="'IBM Plex Mono', 'DejaVu Sans'" font-size="7.4" font-weight="400" fill="#5B6B7F" text-anchor="start">DRAFT → OPEN → …</text><text x="992.0" y="251.0" font-family="'IBM Plex Mono', 'DejaVu Sans'" font-size="8" font-weight="600" fill="#8A99AB" text-anchor="end">06</text><rect x="808.0" y="322.0" width="158.0" height="62.0" rx="7" fill="#FFFFFF" stroke="#238A75" stroke-width="1.2"/><path d="M808.6,329.0 Q808.6,322.6 815.0,322.6 L815.0,383.4 Q808.6,383.4 808.6,377.0 Z" fill="#238A75"/><rect x="808.6" y="322.6" width="4.2" height="60.8" rx="1.5" fill="#238A75" stroke="none" stroke-width="1"/><text x="820.0" y="341.5" font-family="'IBM Plex Sans Condensed', 'DejaVu Sans'" font-size="11.5" font-weight="600" fill="#0B1B2B" text-anchor="start">Tasks</text><text x="820.0" y="354.9" font-family="'IBM Plex Mono', 'DejaVu Sans'" font-size="7.4" font-weight="400" fill="#5B6B7F" text-anchor="start">execution · evidence_required</text><text x="958.0" y="377.0" font-family="'IBM Plex Mono', 'DejaVu Sans'" font-size="8" font-weight="600" fill="#8A99AB" text-anchor="end">07</text><rect x="616.0" y="322.0" width="158.0" height="62.0" rx="7" fill="#FFFFFF" stroke="#238A75" stroke-width="1.2"/><path d="M616.6,329.0 Q616.6,322.6 623.0,322.6 L623.0,383.4 Q616.6,383.4 616.6,377.0 Z" fill="#238A75"/><rect x="616.6" y="322.6" width="4.2" height="60.8" rx="1.5" fill="#238A75" stroke="none" stroke-width="1"/><text x="628.0" y="341.5" font-family="'IBM Plex Sans Condensed', 'DejaVu Sans'" font-size="11.5" font-weight="600" fill="#0B1B2B" text-anchor="start">Parts &amp;</text><text x="628.0" y="354.7" font-family="'IBM Plex Sans Condensed', 'DejaVu Sans'" font-size="11.5" font-weight="600" fill="#0B1B2B" text-anchor="start">resources</text><text x="628.0" y="368.1" font-family="'IBM Plex Mono', 'DejaVu Sans'" font-size="7.4" font-weight="400" fill="#5B6B7F" text-anchor="start">requirements · inventory · PO</text><text x="766.0" y="377.0" font-family="'IBM Plex Mono', 'DejaVu Sans'" font-size="8" font-weight="600" fill="#8A99AB" text-anchor="end">08</text><rect x="424.0" y="322.0" width="158.0" height="62.0" rx="7" fill="#FFFFFF" stroke="#63D3B0" stroke-width="1.2"/><path d="M424.6,329.0 Q424.6,322.6 431.0,322.6 L431.0,383.4 Q424.6,383.4 424.6,377.0 Z" fill="#63D3B0"/><rect x="424.6" y="322.6" width="4.2" height="60.8" rx="1.5" fill="#63D3B0" stroke="none" stroke-width="1"/><text x="436.0" y="341.5" font-family="'IBM Plex Sans Condensed', 'DejaVu Sans'" font-size="11.5" font-weight="600" fill="#0B1B2B" text-anchor="start">Evidence</text><text x="436.0" y="354.7" font-family="'IBM Plex Sans Condensed', 'DejaVu Sans'" font-size="11.5" font-weight="600" fill="#0B1B2B" text-anchor="start">capture</text><text x="436.0" y="368.1" font-family="'IBM Plex Mono', 'DejaVu Sans'" font-size="7.4" font-weight="400" fill="#5B6B7F" text-anchor="start">files · checksum</text><text x="574.0" y="377.0" font-family="'IBM Plex Mono', 'DejaVu Sans'" font-size="8" font-weight="600" fill="#8A99AB" text-anchor="end">09</text><rect x="232.0" y="322.0" width="158.0" height="62.0" rx="7" fill="#FFFFFF" stroke="#F2B84B" stroke-width="1.2"/><path d="M232.6,329.0 Q232.6,322.6 239.0,322.6 L239.0,383.4 Q232.6,383.4 232.6,377.0 Z" fill="#F2B84B"/><rect x="232.6" y="322.6" width="4.2" height="60.8" rx="1.5" fill="#F2B84B" stroke="none" stroke-width="1"/><text x="244.0" y="341.5" font-family="'IBM Plex Sans Condensed', 'DejaVu Sans'" font-size="11.5" font-weight="600" fill="#0B1B2B" text-anchor="start">Authorised</text><text x="244.0" y="354.7" font-family="'IBM Plex Sans Condensed', 'DejaVu Sans'" font-size="11.5" font-weight="600" fill="#0B1B2B" text-anchor="start">review</text><text x="244.0" y="368.1" font-family="'IBM Plex Mono', 'DejaVu Sans'" font-size="7.4" font-weight="400" fill="#5B6B7F" text-anchor="start">inspection sign-off</text><text x="382.0" y="377.0" font-family="'IBM Plex Mono', 'DejaVu Sans'" font-size="8" font-weight="600" fill="#8A99AB" text-anchor="end">10</text><rect x="40.0" y="322.0" width="158.0" height="62.0" rx="7" fill="#FFFFFF" stroke="#F2B84B" stroke-width="1.2"/><path d="M40.6,329.0 Q40.6,322.6 47.0,322.6 L47.0,383.4 Q40.6,383.4 40.6,377.0 Z" fill="#F2B84B"/><rect x="40.6" y="322.6" width="4.2" height="60.8" rx="1.5" fill="#F2B84B" stroke="none" stroke-width="1"/><text x="52.0" y="341.5" font-family="'IBM Plex Sans Condensed', 'DejaVu Sans'" font-size="11.5" font-weight="600" fill="#0B1B2B" text-anchor="start">Release</text><text x="52.0" y="354.7" font-family="'IBM Plex Sans Condensed', 'DejaVu Sans'" font-size="11.5" font-weight="600" fill="#0B1B2B" text-anchor="start">readiness</text><text x="52.0" y="368.1" font-family="'IBM Plex Mono', 'DejaVu Sans'" font-size="7.4" font-weight="400" fill="#5B6B7F" text-anchor="start">READY / BLOCKED gate</text><text x="190.0" y="377.0" font-family="'IBM Plex Mono', 'DejaVu Sans'" font-size="8" font-weight="600" fill="#8A99AB" text-anchor="end">11</text><rect x="6.0" y="172.0" width="150.0" height="52.0" rx="7" fill="#FFFFFF" stroke="#35C2D0" stroke-width="1.2"/><path d="M6.6,179.0 Q6.6,172.6 13.0,172.6 L13.0,223.4 Q6.6,223.4 6.6,217.0 Z" fill="#35C2D0"/><rect x="6.6" y="172.6" width="4.2" height="50.8" rx="1.5" fill="#35C2D0" stroke="none" stroke-width="1"/><text x="18.0" y="191.0" font-family="'IBM Plex Sans Condensed', 'DejaVu Sans'" font-size="11" font-weight="600" fill="#0B1B2B" text-anchor="start">Next due</text><text x="18.0" y="203.7" font-family="'IBM Plex Sans Condensed', 'DejaVu Sans'" font-size="11" font-weight="600" fill="#0B1B2B" text-anchor="start">state</text><text x="18.0" y="216.8" font-family="'IBM Plex Mono', 'DejaVu Sans'" font-size="7.2" font-weight="400" fill="#5B6B7F" text-anchor="start">programme · recurrence</text><rect x="6.0" y="236.0" width="150.0" height="52.0" rx="7" fill="#FFFFFF" stroke="#63D3B0" stroke-width="1.2"/><path d="M6.6,243.0 Q6.6,236.6 13.0,236.6 L13.0,287.4 Q6.6,287.4 6.6,281.0 Z" fill="#63D3B0"/><rect x="6.6" y="236.6" width="4.2" height="50.8" rx="1.5" fill="#63D3B0" stroke="none" stroke-width="1"/><text x="18.0" y="255.0" font-family="'IBM Plex Sans Condensed', 'DejaVu Sans'" font-size="11" font-weight="600" fill="#0B1B2B" text-anchor="start">Lifecycle</text><text x="18.0" y="267.6" font-family="'IBM Plex Sans Condensed', 'DejaVu Sans'" font-size="11" font-weight="600" fill="#0B1B2B" text-anchor="start">record</text><text x="18.0" y="280.8" font-family="'IBM Plex Mono', 'DejaVu Sans'" font-size="7.2" font-weight="400" fill="#5B6B7F" text-anchor="start">audit · installation history</text><text x="148.0" y="220.0" font-family="'IBM Plex Mono', 'DejaVu Sans'" font-size="8" font-weight="600" fill="#8A99AB" text-anchor="end">12</text><text x="148.0" y="284.0" font-family="'IBM Plex Mono', 'DejaVu Sans'" font-size="8" font-weight="600" fill="#8A99AB" text-anchor="end">13</text><path d="M198.0,101.0 L232.0,101.0" fill="none" stroke="#0B1B2B" stroke-width="1.6" stroke-linecap="round" marker-end="url(#e-syncL)"/><path d="M390.0,101.0 L424.0,101.0" fill="none" stroke="#0B1B2B" stroke-width="1.6" stroke-linecap="round" marker-end="url(#e-syncL)"/><path d="M582.0,101.0 L616.0,101.0" fill="none" stroke="#0B1B2B" stroke-width="1.6" stroke-linecap="round" marker-end="url(#e-syncL)"/><path d="M774.0,101.0 L808.0,101.0" fill="none" stroke="#0B1B2B" stroke-width="1.6" stroke-linecap="round" marker-end="url(#e-syncL)"/><path d="M966.0,101.0 L1012.0,101.0 Q1020.0,101.0 1020.0,109.0 L1020.0,219.0 Q1020.0,227.0 1012.0,227.0 L1000.0,227.0" fill="none" stroke="#0B1B2B" stroke-width="1.6" stroke-linecap="round" marker-end="url(#e-syncL)"/><rect x="842.0" y="196.0" width="158.0" height="62.0" rx="7" fill="#FFFFFF" stroke="#238A75" stroke-width="1.2"/><path d="M842.6,203.0 Q842.6,196.6 849.0,196.6 L849.0,257.4 Q842.6,257.4 842.6,251.0 Z" fill="#238A75"/><rect x="842.6" y="196.6" width="4.2" height="60.8" rx="1.5" fill="#238A75" stroke="none" stroke-width="1"/><text x="854.0" y="215.5" font-family="'IBM Plex Sans Condensed', 'DejaVu Sans'" font-size="11.5" font-weight="600" fill="#0B1B2B" text-anchor="start">Work order</text><text x="854.0" y="228.9" font-family="'IBM Plex Mono', 'DejaVu Sans'" font-size="7.4" font-weight="400" fill="#5B6B7F" text-anchor="start">DRAFT → OPEN → …</text><path d="M921.0,258.0 L921.0,282.0 Q921.0,290.0 913.0,290.0 L895.0,290.0 Q887.0,290.0 887.0,298.0 L887.0,322.0" fill="none" stroke="#0B1B2B" stroke-width="1.6" stroke-linecap="round" marker-end="url(#e-syncL)"/><path d="M808.0,353.0 L774.0,353.0" fill="none" stroke="#0B1B2B" stroke-width="1.6" stroke-linecap="round" marker-end="url(#e-syncL)"/><path d="M616.0,353.0 L582.0,353.0" fill="none" stroke="#0B1B2B" stroke-width="1.6" stroke-linecap="round" marker-end="url(#e-syncL)"/><path d="M424.0,353.0 L390.0,353.0" fill="none" stroke="#0B1B2B" stroke-width="1.6" stroke-linecap="round" marker-end="url(#e-syncL)"/><path d="M232.0,353.0 L198.0,353.0" fill="none" stroke="#0B1B2B" stroke-width="1.6" stroke-linecap="round" marker-end="url(#e-syncL)"/><path d="M119.0,322.0 L119.0,308.0 Q119.0,300.0 111.0,300.0 L87.0,300.0 Q81.0,300.0 81.0,294.0 L81.0,288.0" fill="none" stroke="#0B1B2B" stroke-width="1.6" stroke-linecap="round" marker-end="url(#e-syncL)"/><path d="M81.0,236.0 L81.0,224.0" fill="none" stroke="#0B1B2B" stroke-width="1.6" stroke-linecap="round" marker-end="url(#e-syncL)"/><path d="M81.0,172.0 L81.0,132.0" fill="none" stroke="#238A75" stroke-width="1.6" stroke-dasharray="10 4" stroke-linecap="round" marker-end="url(#e-feedbackL)"/><rect x="200.0" y="158.0" width="620.0" height="132.0" rx="12" fill="#FFFFFF" stroke="#D3DCE6" stroke-width="1"/><text x="216.0" y="178.0" font-family="'IBM Plex Mono', 'DejaVu Sans'" font-size="8.4" font-weight="600" fill="#5B6B7F" text-anchor="start" letter-spacing="1.1">INPUTS THAT OPEN OR INFORM WORK — NEVER BYPASS AUTHORISATION</text><rect x="216.0" y="190.0" width="188.0" height="60.0" rx="7" fill="#FFFFFF" stroke="#F2B84B" stroke-width="1.2"/><path d="M216.6,197.0 Q216.6,190.6 223.0,190.6 L223.0,249.4 Q216.6,249.4 216.6,243.0 Z" fill="#F2B84B"/><rect x="216.6" y="190.6" width="4.2" height="58.8" rx="1.5" fill="#F2B84B" stroke="none" stroke-width="1"/><text x="228.0" y="209.0" font-family="'IBM Plex Sans Condensed', 'DejaVu Sans'" font-size="11" font-weight="600" fill="#0B1B2B" text-anchor="start">HUMS finding</text><text x="228.0" y="222.2" font-family="'IBM Plex Mono', 'DejaVu Sans'" font-size="7.2" font-weight="400" fill="#5B6B7F" text-anchor="start">exceedance → finding + evidence</text><text x="228.0" y="231.6" font-family="'IBM Plex Mono', 'DejaVu Sans'" font-size="7.2" font-weight="400" fill="#5B6B7F" text-anchor="start">(automatic)</text><rect x="416.0" y="190.0" width="188.0" height="60.0" rx="7" fill="#FFFFFF" stroke="#F2B84B" stroke-width="1.2"/><path d="M416.6,197.0 Q416.6,190.6 423.0,190.6 L423.0,249.4 Q416.6,249.4 416.6,243.0 Z" fill="#F2B84B"/><rect x="416.6" y="190.6" width="4.2" height="58.8" rx="1.5" fill="#F2B84B" stroke="none" stroke-width="1"/><text x="428.0" y="209.0" font-family="'IBM Plex Sans Condensed', 'DejaVu Sans'" font-size="11" font-weight="600" fill="#0B1B2B" text-anchor="start">M7 signal</text><text x="428.0" y="222.2" font-family="'IBM Plex Mono', 'DejaVu Sans'" font-size="7.2" font-weight="400" fill="#5B6B7F" text-anchor="start">user creates work order from signal</text><rect x="616.0" y="190.0" width="188.0" height="60.0" rx="7" fill="#FFFFFF" stroke="#F2B84B" stroke-width="1.2"/><path d="M616.6,197.0 Q616.6,190.6 623.0,190.6 L623.0,249.4 Q616.6,249.4 616.6,243.0 Z" fill="#F2B84B"/><rect x="616.6" y="190.6" width="4.2" height="58.8" rx="1.5" fill="#F2B84B" stroke="none" stroke-width="1"/><text x="628.0" y="209.0" font-family="'IBM Plex Sans Condensed', 'DejaVu Sans'" font-size="11" font-weight="600" fill="#0B1B2B" text-anchor="start">Compliance</text><text x="628.0" y="221.7" font-family="'IBM Plex Sans Condensed', 'DejaVu Sans'" font-size="11" font-weight="600" fill="#0B1B2B" text-anchor="start">obligation</text><text x="628.0" y="234.8" font-family="'IBM Plex Mono', 'DejaVu Sans'" font-size="7.2" font-weight="400" fill="#5B6B7F" text-anchor="start">due / overdue → planned work</text><text x="216.0" y="270.0" font-family="'IBM Plex Sans Condensed', 'DejaVu Sans'" font-size="9.2" font-weight="500" fill="#0B1B2B" text-anchor="start">Gates: tasks complete → INSPECTION · RII by a second person · evidence ACCEPTED · READY = zero blockers</text><path d="M820.0,227.0 L842.0,227.0" fill="none" stroke="#B7791F" stroke-width="2.0" stroke-linecap="round" marker-end="url(#e-humanL)"/><rect x="14.0" y="410.0" width="1012.0" height="136.0" rx="10" fill="#FFFFFF" stroke="#D3DCE6" stroke-width="1"/><text x="30.0" y="432.0" font-family="'IBM Plex Mono', 'DejaVu Sans'" font-size="8.6" font-weight="600" fill="#5B6B7F" text-anchor="start" letter-spacing="1.2">WORK ORDER STATE MACHINE (models/work_order.py)</text><rect x="30.0" y="446.0" width="108.0" height="30.0" rx="15" fill="#E7F4F1" stroke="#238A75" stroke-width="1"/><text x="84.0" y="465.0" font-family="'IBM Plex Mono', 'DejaVu Sans'" font-size="9.4" font-weight="600" fill="#238A75" text-anchor="middle">DRAFT</text><path d="M138.0,461.0 L152.0,461.0" fill="none" stroke="#0B1B2B" stroke-width="1.6" stroke-linecap="round" marker-end="url(#e-syncL)"/><rect x="152.0" y="446.0" width="108.0" height="30.0" rx="15" fill="#E7F4F1" stroke="#238A75" stroke-width="1"/><text x="206.0" y="465.0" font-family="'IBM Plex Mono', 'DejaVu Sans'" font-size="9.4" font-weight="600" fill="#238A75" text-anchor="middle">OPEN</text><path d="M260.0,461.0 L274.0,461.0" fill="none" stroke="#0B1B2B" stroke-width="1.6" stroke-linecap="round" marker-end="url(#e-syncL)"/><rect x="274.0" y="446.0" width="108.0" height="30.0" rx="15" fill="#E7F4F1" stroke="#238A75" stroke-width="1"/><text x="328.0" y="465.0" font-family="'IBM Plex Mono', 'DejaVu Sans'" font-size="9.4" font-weight="600" fill="#238A75" text-anchor="middle">PLANNED</text><path d="M382.0,461.0 L396.0,461.0" fill="none" stroke="#0B1B2B" stroke-width="1.6" stroke-linecap="round" marker-end="url(#e-syncL)"/><rect x="396.0" y="446.0" width="108.0" height="30.0" rx="15" fill="#E7F4F1" stroke="#238A75" stroke-width="1"/><text x="450.0" y="465.0" font-family="'IBM Plex Mono', 'DejaVu Sans'" font-size="9.4" font-weight="600" fill="#238A75" text-anchor="middle">ASSIGNED</text><path d="M504.0,461.0 L518.0,461.0" fill="none" stroke="#0B1B2B" stroke-width="1.6" stroke-linecap="round" marker-end="url(#e-syncL)"/><rect x="518.0" y="446.0" width="108.0" height="30.0" rx="15" fill="#E7F4F1" stroke="#238A75" stroke-width="1"/><text x="572.0" y="465.0" font-family="'IBM Plex Mono', 'DejaVu Sans'" font-size="9.4" font-weight="600" fill="#238A75" text-anchor="middle">IN_PROGRESS</text><path d="M626.0,461.0 L640.0,461.0" fill="none" stroke="#0B1B2B" stroke-width="1.6" stroke-linecap="round" marker-end="url(#e-syncL)"/><rect x="640.0" y="446.0" width="108.0" height="30.0" rx="15" fill="#E7F4F1" stroke="#238A75" stroke-width="1"/><text x="694.0" y="465.0" font-family="'IBM Plex Mono', 'DejaVu Sans'" font-size="9.4" font-weight="600" fill="#238A75" text-anchor="middle">INSPECTION</text><path d="M748.0,461.0 L762.0,461.0" fill="none" stroke="#0B1B2B" stroke-width="1.6" stroke-linecap="round" marker-end="url(#e-syncL)"/><rect x="762.0" y="446.0" width="108.0" height="30.0" rx="15" fill="#E7F4F1" stroke="#238A75" stroke-width="1"/><text x="816.0" y="465.0" font-family="'IBM Plex Mono', 'DejaVu Sans'" font-size="9.4" font-weight="600" fill="#238A75" text-anchor="middle">COMPLETED</text><path d="M870.0,461.0 L884.0,461.0" fill="none" stroke="#0B1B2B" stroke-width="1.6" stroke-linecap="round" marker-end="url(#e-syncL)"/><rect x="884.0" y="446.0" width="108.0" height="30.0" rx="15" fill="#E7F4F1" stroke="#238A75" stroke-width="1"/><text x="938.0" y="465.0" font-family="'IBM Plex Mono', 'DejaVu Sans'" font-size="9.4" font-weight="600" fill="#238A75" text-anchor="middle">CLOSED</text><rect x="518.0" y="494.0" width="108.0" height="30.0" rx="15" fill="#F1F3F6" stroke="#5B6B7F" stroke-width="1"/><text x="572.0" y="513.0" font-family="'IBM Plex Mono', 'DejaVu Sans'" font-size="9.4" font-weight="600" fill="#5B6B7F" text-anchor="middle">ON_HOLD</text><rect x="640.0" y="494.0" width="108.0" height="30.0" rx="15" fill="#FDECE8" stroke="#F07861" stroke-width="1"/><text x="694.0" y="513.0" font-family="'IBM Plex Mono', 'DejaVu Sans'" font-size="9.4" font-weight="600" fill="#C4513C" text-anchor="middle">CANCELLED</text><text x="30.0" y="500.0" font-family="'IBM Plex Sans Condensed', 'DejaVu Sans'" font-size="9.4" font-weight="400" fill="#3A4A5C" text-anchor="start">Every transition writes work_order.transitioned (audit). IN_PROGRESS → INSPECTION needs all tasks complete;</text><text x="30.0" y="512.2" font-family="'IBM Plex Sans Condensed', 'DejaVu Sans'" font-size="9.4" font-weight="400" fill="#3A4A5C" text-anchor="start">INSPECTION → COMPLETED needs inspections passed.</text><text x="770.0" y="500.0" font-family="'IBM Plex Sans Condensed', 'DejaVu Sans'" font-size="9.4" font-weight="600" fill="#C4513C" text-anchor="start">Return to service is a human determination outside LISA.</text><text x="14.0" y="22.0" font-family="'IBM Plex Mono', 'DejaVu Sans'" font-size="9" font-weight="500" fill="#5B6B7F" text-anchor="start" letter-spacing="1.4">D10 · MRO &amp; ASSET LIFECYCLE</text><text x="1026.0" y="22.0" font-family="'IBM Plex Mono', 'DejaVu Sans'" font-size="9" font-weight="500" fill="#238A75" text-anchor="end" letter-spacing="1.2">CURRENT VERIFIED</text><rect x="133.6" y="76.0" width="58.4" height="15.0" rx="7.5" fill="#FFFFFF" stroke="#238A75" stroke-width="0.9"/><path d="M139.74,83.50 L141.76,85.52 L145.62,81.32" fill="none" stroke="#238A75" stroke-width="1.08" stroke-linecap="round" stroke-linejoin="round"/><text x="167.8" y="86.4" font-family="'IBM Plex Mono', 'DejaVu Sans'" font-size="8" font-weight="500" fill="#238A75" text-anchor="middle">VERIFIED</text><rect x="325.6" y="76.0" width="58.4" height="15.0" rx="7.5" fill="#FFFFFF" stroke="#238A75" stroke-width="0.9"/><path d="M331.74,83.50 L333.76,85.52 L337.62,81.32" fill="none" stroke="#238A75" stroke-width="1.08" stroke-linecap="round" stroke-linejoin="round"/><text x="359.8" y="86.4" font-family="'IBM Plex Mono', 'DejaVu Sans'" font-size="8" font-weight="500" fill="#238A75" text-anchor="middle">VERIFIED</text><rect x="517.6" y="76.0" width="58.4" height="15.0" rx="7.5" fill="#FFFFFF" stroke="#238A75" stroke-width="0.9"/><path d="M523.74,83.50 L525.76,85.52 L529.62,81.32" fill="none" stroke="#238A75" stroke-width="1.08" stroke-linecap="round" stroke-linejoin="round"/><text x="551.8" y="86.4" font-family="'IBM Plex Mono', 'DejaVu Sans'" font-size="8" font-weight="500" fill="#238A75" text-anchor="middle">VERIFIED</text><rect x="709.6" y="76.0" width="58.4" height="15.0" rx="7.5" fill="#FFFFFF" stroke="#238A75" stroke-width="0.9"/><path d="M715.74,83.50 L717.76,85.52 L721.62,81.32" fill="none" stroke="#238A75" stroke-width="1.08" stroke-linecap="round" stroke-linejoin="round"/><text x="743.8" y="86.4" font-family="'IBM Plex Mono', 'DejaVu Sans'" font-size="8" font-weight="500" fill="#238A75" text-anchor="middle">VERIFIED</text><rect x="901.6" y="76.0" width="58.4" height="15.0" rx="7.5" fill="#FFFFFF" stroke="#238A75" stroke-width="0.9"/><path d="M907.74,83.50 L909.76,85.52 L913.62,81.32" fill="none" stroke="#238A75" stroke-width="1.08" stroke-linecap="round" stroke-linejoin="round"/><text x="935.8" y="86.4" font-family="'IBM Plex Mono', 'DejaVu Sans'" font-size="8" font-weight="500" fill="#238A75" text-anchor="middle">VERIFIED</text><rect x="935.6" y="202.0" width="58.4" height="15.0" rx="7.5" fill="#FFFFFF" stroke="#238A75" stroke-width="0.9"/><path d="M941.74,209.50 L943.76,211.52 L947.62,207.32" fill="none" stroke="#238A75" stroke-width="1.08" stroke-linecap="round" stroke-linejoin="round"/><text x="969.8" y="212.4" font-family="'IBM Plex Mono', 'DejaVu Sans'" font-size="8" font-weight="500" fill="#238A75" text-anchor="middle">VERIFIED</text><rect x="901.6" y="328.0" width="58.4" height="15.0" rx="7.5" fill="#FFFFFF" stroke="#238A75" stroke-width="0.9"/><path d="M907.74,335.50 L909.76,337.52 L913.62,333.32" fill="none" stroke="#238A75" stroke-width="1.08" stroke-linecap="round" stroke-linejoin="round"/><text x="935.8" y="338.4" font-family="'IBM Plex Mono', 'DejaVu Sans'" font-size="8" font-weight="500" fill="#238A75" text-anchor="middle">VERIFIED</text><rect x="709.6" y="328.0" width="58.4" height="15.0" rx="7.5" fill="#FFFFFF" stroke="#238A75" stroke-width="0.9"/><path d="M715.74,335.50 L717.76,337.52 L721.62,333.32" fill="none" stroke="#238A75" stroke-width="1.08" stroke-linecap="round" stroke-linejoin="round"/><text x="743.8" y="338.4" font-family="'IBM Plex Mono', 'DejaVu Sans'" font-size="8" font-weight="500" fill="#238A75" text-anchor="middle">VERIFIED</text><rect x="517.6" y="328.0" width="58.4" height="15.0" rx="7.5" fill="#FFFFFF" stroke="#238A75" stroke-width="0.9"/><path d="M523.74,335.50 L525.76,337.52 L529.62,333.32" fill="none" stroke="#238A75" stroke-width="1.08" stroke-linecap="round" stroke-linejoin="round"/><text x="551.8" y="338.4" font-family="'IBM Plex Mono', 'DejaVu Sans'" font-size="8" font-weight="500" fill="#238A75" text-anchor="middle">VERIFIED</text><rect x="325.6" y="328.0" width="58.4" height="15.0" rx="7.5" fill="#FFFFFF" stroke="#238A75" stroke-width="0.9"/><path d="M331.74,335.50 L333.76,337.52 L337.62,333.32" fill="none" stroke="#238A75" stroke-width="1.08" stroke-linecap="round" stroke-linejoin="round"/><text x="359.8" y="338.4" font-family="'IBM Plex Mono', 'DejaVu Sans'" font-size="8" font-weight="500" fill="#238A75" text-anchor="middle">VERIFIED</text><rect x="133.6" y="328.0" width="58.4" height="15.0" rx="7.5" fill="#FFFFFF" stroke="#238A75" stroke-width="0.9"/><path d="M139.74,335.50 L141.76,337.52 L145.62,333.32" fill="none" stroke="#238A75" stroke-width="1.08" stroke-linecap="round" stroke-linejoin="round"/><text x="167.8" y="338.4" font-family="'IBM Plex Mono', 'DejaVu Sans'" font-size="8" font-weight="500" fill="#238A75" text-anchor="middle">VERIFIED</text><rect x="91.6" y="178.0" width="58.4" height="15.0" rx="7.5" fill="#FFFFFF" stroke="#238A75" stroke-width="0.9"/><path d="M97.74,185.50 L99.76,187.52 L103.62,183.32" fill="none" stroke="#238A75" stroke-width="1.08" stroke-linecap="round" stroke-linejoin="round"/><text x="125.8" y="188.4" font-family="'IBM Plex Mono', 'DejaVu Sans'" font-size="8" font-weight="500" fill="#238A75" text-anchor="middle">VERIFIED</text><rect x="91.6" y="242.0" width="58.4" height="15.0" rx="7.5" fill="#FFFFFF" stroke="#238A75" stroke-width="0.9"/><path d="M97.74,249.50 L99.76,251.52 L103.62,247.32" fill="none" stroke="#238A75" stroke-width="1.08" stroke-linecap="round" stroke-linejoin="round"/><text x="125.8" y="252.4" font-family="'IBM Plex Mono', 'DejaVu Sans'" font-size="8" font-weight="500" fill="#238A75" text-anchor="middle">VERIFIED</text><rect x="935.6" y="202.0" width="58.4" height="15.0" rx="7.5" fill="#FFFFFF" stroke="#238A75" stroke-width="0.9"/><path d="M941.74,209.50 L943.76,211.52 L947.62,207.32" fill="none" stroke="#238A75" stroke-width="1.08" stroke-linecap="round" stroke-linejoin="round"/><text x="969.8" y="212.4" font-family="'IBM Plex Mono', 'DejaVu Sans'" font-size="8" font-weight="500" fill="#238A75" text-anchor="middle">VERIFIED</text><rect x="57.0" y="144.2" width="48.1" height="15.6" rx="7.8" fill="#FFFFFF" stroke="#238A75" stroke-width="0.8"/><text x="81.0" y="155.1" font-family="'IBM Plex Sans Condensed', 'DejaVu Sans'" font-size="8.6" font-weight="500" fill="#238A75" text-anchor="middle">next cycle</text><rect x="339.6" y="196.0" width="58.4" height="15.0" rx="7.5" fill="#FFFFFF" stroke="#238A75" stroke-width="0.9"/><path d="M345.74,203.50 L347.76,205.52 L351.62,201.32" fill="none" stroke="#238A75" stroke-width="1.08" stroke-linecap="round" stroke-linejoin="round"/><text x="373.8" y="206.4" font-family="'IBM Plex Mono', 'DejaVu Sans'" font-size="8" font-weight="500" fill="#238A75" text-anchor="middle">VERIFIED</text><rect x="539.6" y="196.0" width="58.4" height="15.0" rx="7.5" fill="#FFFFFF" stroke="#238A75" stroke-width="0.9"/><path d="M545.74,203.50 L547.76,205.52 L551.62,201.32" fill="none" stroke="#238A75" stroke-width="1.08" stroke-linecap="round" stroke-linejoin="round"/><text x="573.8" y="206.4" font-family="'IBM Plex Mono', 'DejaVu Sans'" font-size="8" font-weight="500" fill="#238A75" text-anchor="middle">VERIFIED</text><rect x="739.6" y="196.0" width="58.4" height="15.0" rx="7.5" fill="#FFFFFF" stroke="#238A75" stroke-width="0.9"/><path d="M745.74,203.50 L747.76,205.52 L751.62,201.32" fill="none" stroke="#238A75" stroke-width="1.08" stroke-linecap="round" stroke-linejoin="round"/><text x="773.8" y="206.4" font-family="'IBM Plex Mono', 'DejaVu Sans'" font-size="8" font-weight="500" fill="#238A75" text-anchor="middle">VERIFIED</text><rect x="697.0" y="266.3" width="126.1" height="15.4" rx="7.7" fill="#FFFFFF" stroke="#B7791F" stroke-width="0.8"/><text x="760.0" y="277.0" font-family="'IBM Plex Sans Condensed', 'DejaVu Sans'" font-size="8.4" font-weight="500" fill="#B7791F" text-anchor="middle">→ authorised user creates / plans</text></svg>