<svg xmlns="http://www.w3.org/2000/svg" viewBox="0 0 1040 440" width="100%" role="img" aria-label="D13 Deployment and operations" xmlns:c2pa="http://c2pa.org/manifest"><metadata><c2pa:manifest>AAAWgmp1bWIAAAAeanVtZGMycGEAEQAQgAAAqgA4m3EDYzJwYQAAABZcanVtYgAAAEdqdW1kYzJtYQARABCAAACqADibcQN1cm46YzJwYTpmMjVjZDBhZC1mNzUxLTQxMjQtYmI3ZS0wZjY4YTY4MjI2NWUAAAADl2p1bWIAAAApanVtZGMyYXMAEQAQgAAAqgA4m3EDYzJwYS5hc3NlcnRpb25zAAAAALxqdW1iAAAARGp1bWRjYm9yABEAEIAAAKoAOJtxE2MycGEuaW5ncmVkaWVudC52MwAAAAAYYzJzaPCRWspBJZ6uxreGxJAn1z0AAABwY2JvcqNpZGM6Zm9ybWF0bWltYWdlL3N2Zyt4bWxqaW5zdGFuY2VJRHgseG1wOmlpZDo4MDQzODZhOS04YmYwLTQ2MDgtYWU5MS0yZTY1ZGY3NTUzNGJscmVsYXRpb25zaGlwaHBhcmVudE9mAAAB4mp1bWIAAABBanVtZGNib3IAEQAQgAAAqgA4m3ETYzJwYS5hY3Rpb25zLnYyAAAAABhjMnNodtf4dy4bpZi/CB4KvdrNWgAAAZljYm9yomdhY3Rpb25zgqJmYWN0aW9ua2MycGEub3BlbmVkanBhcmFtZXRlcnOha2luZ3JlZGllbnRzgaJjdXJseC1zZWxmI2p1bWJmPWMycGEuYXNzZXJ0aW9ucy9jMnBhLmluZ3JlZGllbnQudjNkaGFzaFggRHZdCh3Xr0CDgNg9azYYGZSFboY+TJl14BWVk4CzOVakZmFjdGlvbngdY29tLmFudGhyb3BpYy5jbGF1ZGUucHJvdmlkZWRqcGFyYW1ldGVyc6F4H2NvbS5hbnRocm9waWMub3JpZ2luLWNvbmZpZGVuY2VndW5rbm93bmtkZXNjcmlwdGlvbnhmQ2xhdWRlIHByb3ZpZGVkIHRoaXMgZmlsZSBhdCB0aGUgcmVxdWVzdCBvZiBhIHVzZXIgYW5kIG1heSBoYXZlIGNyZWF0ZWQgb3IgbW9kaWZpZWQgdGhlIGZpbGUgY29udGVudHMubXNvZnR3YXJlQWdlbnShZG5hbWVmQ2xhdWRlcmFsbEFjdGlvbnNJbmNsdWRlZPUAAADIanVtYgAAAEBqdW1kY2JvcgARABCAAACqADibcRNjMnBhLmhhc2guZGF0YQAAAAAYYzJzaLY1XB+rjL/EoEDPi1rbIDQAAACAY2JvcqVjYWxnZnNoYTI1NmNwYWRNAAAAAAAAAAAAAAAAAGRoYXNoWCDDkIkd94RbzyWkBGuYt86FHXOgDeDkkRWNPOwXYoprEGRuYW1lbmp1bWJmIG1hbmlmZXN0amV4Y2x1c2lvbnOBomVzdGFydBjBZmxlbmd0aBkeBAAAAj5qdW1iAAAAJ2p1bWRjMmNsABEAEIAAAKoAOJtxA2MycGEuY2xhaW0udjIAAAACD2Nib3KlY2FsZ2ZzaGEyNTZpc2lnbmF0dXJleE1zZWxmI2p1bWJmPS9jMnBhL3VybjpjMnBhOmYyNWNkMGFkLWY3NTEtNDEyNC1iYjdlLTBmNjhhNjgyMjY1ZS9jMnBhLnNpZ25hdHVyZWppbnN0YW5jZUlEeCx4bXA6aWlkOmEwNzY2NWQ1LWZkYTctNDA2NS1hNGM2LTllZDE2ZWRjNDRlMHJjcmVhdGVkX2Fzc2VydGlvbnODomN1cmx4LXNlbGYjanVtYmY9YzJwYS5hc3NlcnRpb25zL2MycGEuaW5ncmVkaWVudC52M2RoYXNoWCBEdl0KHdevQIOA2D1rNhgZlIVuhj5MmXXgFZWTgLM5VqJjdXJseCpzZWxmI2p1bWJmPWMycGEuYXNzZXJ0aW9ucy9jMnBhLmFjdGlvbnMudjJkaGFzaFggXmMitkj+SBQWuzHArrehZtt1/GeB5cvaDqbS8ZtiWKKiY3VybHgpc2VsZiNqdW1iZj1jMnBhLmFzc2VydGlvbnMvYzJwYS5oYXNoLmRhdGFkaGFzaFgg+EUYu5fHAOEqggOiNlmgWiGaRAwpiXbEXWMK5B7lFrp0Y2xhaW1fZ2VuZXJhdG9yX2luZm+jZG5hbWVvQW50aHJvcGljIEZpbGVzZ3ZlcnNpb25lMS4wLjBrc3BlY1ZlcnNpb25lMi40LjAAABA4anVtYgAAAChqdW1kYzJjcwARABCAAACqADibcQNjMnBhLnNpZ25hdHVyZQAAABAIY2JvctKEWQISogEmGCFZAgowggIGMIIBjaADAgECAhRA5aAK7sI50L64g/oGQgU9Z1UTADAKBggqhkjOPQQDAzBJMRcwFQYDVQQKEw5BbnRocm9waWMsIFBCQzEuMCwGA1UEAxMlQW50aHJvcGljIENvbnRlbnQgQ3JlZGVudGlhbHMgUm9vdCBDQTAeFw0yNjA4MDcxODQzNTZaFw0yODA4MDYxOTQzNTZaMEQxFzAVBgNVBAoTDkFudGhyb3BpYywgUEJDMSkwJwYDVQQDEyBBbnRocm9waWMgQ2xhdWRlIENvbnRlbnQgU2lnbmluZzBZMBMGByqGSM49AgEGCCqGSM49AwEHA0IABJh6CmvLUBgFFNU0vUKlOVtE6djd17L5SuwX0LemFisBM3dkd/3cyjxFA3Qo5S46fX0/ihY0VZ7mfb9KF703t5OjWDBWMA4GA1UdDwEB/wQEAwIHgDAVBgNVHSUEDjAMBgorBgEEAYPoXgIBMAwGA1UdEwEB/wQCMAAwHwYDVR0jBBgwFoAUzlHiBIFOZFsj+OPEz5o+nMHXXMIwCgYIKoZIzj0EAwMDZwAwZAIwMXMdFJ4BetLLVY7ORuE9noqbbAZOZn/aArXyTwFAZfKrPzxF2vPoJNf1+UCdg1XGAjBwX1zd9WGqYkqmL5SFqw1QySjr1zJfpJM9+1rdDwSPLMOPOjKuiXjoU/pUUeG9RwmhY3BhZFkNngAAAAAAAAAAAAAAAAAAAAAAAAAAAAAAAAAAAAAAAAAAAAAAAAAAAAAAAAAAAAAAAAAAAAAAAAAAAAAAAAAAAAAAAAAAAAAAAAAAAAAAAAAAAAAAAAAAAAAAAAAAAAAAAAAAAAAAAAAAAAAAAAAAAAAAAAAAAAAAAAAAAAAAAAAAAAAAAAAAAAAAAAAAAAAAAAAAAAAAAAAAAAAAAAAAAAAAAAAAAAAAAAAAAAAAAAAAAAAAAAAAAAAAAAAAAAAAAAAAAAAAAAAAAAAAAAAAAAAAAAAAAAAAAAAAAAAAAAAAAAAAAAAAAAAAAAAAAAAAAAAAAAAAAAAAAAAAAAAAAAAAAAAAAAAAAAAAAAAAAAAAAAAAAAAAAAAAAAAAAAAAAAAAAAAAAAAAAAAAAAAAAAAAAAAAAAAAAAAAAAAAAAAAAAAAAAAAAAAAAAAAAAAAAAAAAAAAAAAAAAAAAAAAAAAAAAAAAAAAAAAAAAAAAAAAAAAAAAAAAAAAAAAAAAAAAAAAAAAAAAAAAAAAAAAAAAAAAAAAAAAAAAAAAAAAAAAAAAAAAAAAAAAAAAAAAAAAAAAAAAAAAAAAAAAAAAAAAAAAAAAAAAAAAAAAAAAAAAAAAAAAAAAAAAAAAAAAAAAAAAAAAAAAAAAAAAAAAAAAAAAAAAAAAAAAAAAAAAAAAAAAAAAAAAAAAAAAAAAAAAAAAAAAAAAAAAAAAAAAAAAAAAAAAAAAAAAAAAAAAAAAAAAAAAAAAAAAAAAAAAAAAAAAAAAAAAAAAAAAAAAAAAAAAAAAAAAAAAAAAAAAAAAAAAAAAAAAAAAAAAAAAAAAAAAAAAAAAAAAAAAAAAAAAAAAAAAAAAAAAAAAAAAAAAAAAAAAAAAAAAAAAAAAAAAAAAAAAAAAAAAAAAAAAAAAAAAAAAAAAAAAAAAAAAAAAAAAAAAAAAAAAAAAAAAAAAAAAAAAAAAAAAAAAAAAAAAAAAAAAAAAAAAAAAAAAAAAAAAAAAAAAAAAAAAAAAAAAAAAAAAAAAAAAAAAAAAAAAAAAAAAAAAAAAAAAAAAAAAAAAAAAAAAAAAAAAAAAAAAAAAAAAAAAAAAAAAAAAAAAAAAAAAAAAAAAAAAAAAAAAAAAAAAAAAAAAAAAAAAAAAAAAAAAAAAAAAAAAAAAAAAAAAAAAAAAAAAAAAAAAAAAAAAAAAAAAAAAAAAAAAAAAAAAAAAAAAAAAAAAAAAAAAAAAAAAAAAAAAAAAAAAAAAAAAAAAAAAAAAAAAAAAAAAAAAAAAAAAAAAAAAAAAAAAAAAAAAAAAAAAAAAAAAAAAAAAAAAAAAAAAAAAAAAAAAAAAAAAAAAAAAAAAAAAAAAAAAAAAAAAAAAAAAAAAAAAAAAAAAAAAAAAAAAAAAAAAAAAAAAAAAAAAAAAAAAAAAAAAAAAAAAAAAAAAAAAAAAAAAAAAAAAAAAAAAAAAAAAAAAAAAAAAAAAAAAAAAAAAAAAAAAAAAAAAAAAAAAAAAAAAAAAAAAAAAAAAAAAAAAAAAAAAAAAAAAAAAAAAAAAAAAAAAAAAAAAAAAAAAAAAAAAAAAAAAAAAAAAAAAAAAAAAAAAAAAAAAAAAAAAAAAAAAAAAAAAAAAAAAAAAAAAAAAAAAAAAAAAAAAAAAAAAAAAAAAAAAAAAAAAAAAAAAAAAAAAAAAAAAAAAAAAAAAAAAAAAAAAAAAAAAAAAAAAAAAAAAAAAAAAAAAAAAAAAAAAAAAAAAAAAAAAAAAAAAAAAAAAAAAAAAAAAAAAAAAAAAAAAAAAAAAAAAAAAAAAAAAAAAAAAAAAAAAAAAAAAAAAAAAAAAAAAAAAAAAAAAAAAAAAAAAAAAAAAAAAAAAAAAAAAAAAAAAAAAAAAAAAAAAAAAAAAAAAAAAAAAAAAAAAAAAAAAAAAAAAAAAAAAAAAAAAAAAAAAAAAAAAAAAAAAAAAAAAAAAAAAAAAAAAAAAAAAAAAAAAAAAAAAAAAAAAAAAAAAAAAAAAAAAAAAAAAAAAAAAAAAAAAAAAAAAAAAAAAAAAAAAAAAAAAAAAAAAAAAAAAAAAAAAAAAAAAAAAAAAAAAAAAAAAAAAAAAAAAAAAAAAAAAAAAAAAAAAAAAAAAAAAAAAAAAAAAAAAAAAAAAAAAAAAAAAAAAAAAAAAAAAAAAAAAAAAAAAAAAAAAAAAAAAAAAAAAAAAAAAAAAAAAAAAAAAAAAAAAAAAAAAAAAAAAAAAAAAAAAAAAAAAAAAAAAAAAAAAAAAAAAAAAAAAAAAAAAAAAAAAAAAAAAAAAAAAAAAAAAAAAAAAAAAAAAAAAAAAAAAAAAAAAAAAAAAAAAAAAAAAAAAAAAAAAAAAAAAAAAAAAAAAAAAAAAAAAAAAAAAAAAAAAAAAAAAAAAAAAAAAAAAAAAAAAAAAAAAAAAAAAAAAAAAAAAAAAAAAAAAAAAAAAAAAAAAAAAAAAAAAAAAAAAAAAAAAAAAAAAAAAAAAAAAAAAAAAAAAAAAAAAAAAAAAAAAAAAAAAAAAAAAAAAAAAAAAAAAAAAAAAAAAAAAAAAAAAAAAAAAAAAAAAAAAAAAAAAAAAAAAAAAAAAAAAAAAAAAAAAAAAAAAAAAAAAAAAAAAAAAAAAAAAAAAAAAAAAAAAAAAAAAAAAAAAAAAAAAAAAAAAAAAAAAAAAAAAAAAAAAAAAAAAAAAAAAAAAAAAAAAAAAAAAAAAAAAAAAAAAAAAAAAAAAAAAAAAAAAAAAAAAAAAAAAAAAAAAAAAAAAAAAAAAAAAAAAAAAAAAAAAAAAAAAAAAAAAAAAAAAAAAAAAAAAAAAAAAAAAAAAAAAAAAAAAAAAAAAAAAAAAAAAAAAAAAAAAAAAAAAAAAAAAAAAAAAAAAAAAAAAAAAAAAAAAAAAAAAAAAAAAAAAAAAAAAAAAAAAAAAAAAAAAAAAAAAAAAAAAAAAAAAAAAAAAAAAAAAAAAAAAAAAAAAAAAAAAAAAAAAAAAAAAAAAAAAAAAAAAAAAAAAAAAAAAAAAAAAAAAAAAAAAAAAAAAAAAAAAAAAAAAAAAAAAAAAAAAAAAAAAAAAAAAAAAAAAAAAAAAAAAAAAAAAAAAAAAAAAAAAAAAAAAAAAAAAAAAAAAAAAAAAAAAAAAAAAAAAAAAAAAAAAAAAAAAAAAAAAAAAAAAAAAAAAAAAAAAAAAAAAAAAAAAAAAAAAAAAAAAAAAAAAAAAAAAAAAAAAAAAAAAAAAAAAAAAAAAAAAAAAAAAAAAAAAAAAAAAAAAAAAAAAAAAAAAAAAAAAAAAAAAAAAAAAAAAAAAAAAAAAAAAAAAAAAAAAAAAAAAAAAAAAAAAAAAAAAAAAAAAAAAAAAAAAAAAAAAAAAAAAAAAAAAAAAAAAAAAAAAAAAAAAAAAAAAAAAAAAAAAAAAAAAAAAAAAAAAAAAAAAAAAAAAAAAAAAAAAAAAAAAAAAAAAAAAAAAAAAAAAAAAAAAAAAAAAAAAAAAAAAAAAAAAAAAAAAAAAAAAAAAAAAAAAAAAAAAAAAAAAAAAAAAAAAAAAAAAAAAAAAAAAAAAAAAAAAAAAAAAAAAAAAAAAAAAAAAAAAAAAAAAAAAAAAAAAAAAAAAAAAAAAAAAAAAAAAAAAAAAAAAAAAAAAAAAAAAAAAAAAAAAAAAAAAAAAAAAAAAAAAAAAAAAAAAAAAAAAAAAAAAAAAAAAAAAAAAAAAAAAAAAAAAAAAAAAAAAAAAAAAAAAAAAAAAAAAAAAAAAAAAAAAAAAAAAAAAAAAAAAAAAAAAAAAAAAAAAAAAAAAAAAAAAAAAAAAAAAAAAAAAAAAAAAAAAAAAAAAAAAAAAAAAAAAAAAAAAAAAAAAAAAAAAAAAAAAAAAAAAAAAAAAAAAAAAAAAAAAAAAAAAAAAAAAAAAAAAAAAAAAAAAAAAAAAAAAAAAAAAAAAAAAAAAAAAAAAAAAAAAAAAAAAAAAAAAAAAAAAAAAAAAAAAAAAAAAAAAAAAAAAAAAAAAAAAAAAAAAAAAAAAAAAAAAAAAAAAAAAAAAAAAAAAAAAAAAAAAAAAAAAAAAAAAAAAAAAAAAAAAAAAAAAAAAAAAAAAAAAAAAAAAAAAAAAAAAAAAAAAAAAAAAAAAAAAAAAAAAAAAAAAAAAAAAAAAAAAAAAAAAAAAAAAAAAAAAAAAAAAAAAAAAAAAAAAAAAAAAAAAAAAAAAAAAAAAAAAAAAAAAAAAAAAAAAAAAAAAAAAAAAAAAAAAAAAAAAAAAAAAAAAAAAAAAAAAAAAAAAAAAAAAAAAAAAAAAAAAAAAAAAAAAAAAAAAAAAAAAAAAAAAAAAAAAAAAAAAAAAAAAAAAAAAAAAAAAAAAAAAAAAAAAAAAAAAAAAAAAAAAAAAAAAAAAAAAAAAAAAAAAAAAAAAAAAAAAAAAAAAAAAAAAAAAAAAAAAAAAAAAAAAAAAAAAAAAAAAAAAAAAAAAAAAAAAAAAAAAAAAAAAAAAAAAAAAAAAAAAAAAAAAAAAAAAAAAAAAAAAAAAAAAAAAAAAAAAAAAAAAAAAAAAAAAAAAAAAAAAAAAAAAAAAAAAAAAAAAAAAAAAAAAAAAAAAAAAAAAAAAAAAAAAAAAAAAAAAAAAAAAAAAAAAAAAAAAAAAAAAAAAAAAAAAAAAAAAAAAAAAAAAAAAAAAAAAAAAAAPZYQFLip0tJvkPKDRMwuKLZrEQuQ/4FNKHMdNuBHRRNaN4gejsTlsrzLxu4ZlQ+6Knjs112dcaxSPnJeyZ89kVOSWg=</c2pa:manifest></metadata><title>D13 Deployment and operations</title><style>@font-face{font-family:'IBM Plex Sans Condensed';font-weight:400;src:url('../fonts/ibm-plex-sans-condensed-latin-400-normal.woff2') format('woff2');}@font-face{font-family:'IBM Plex Sans Condensed';font-weight:500;src:url('../fonts/ibm-plex-sans-condensed-latin-500-normal.woff2') format('woff2');}@font-face{font-family:'IBM Plex Sans Condensed';font-weight:600;src:url('../fonts/ibm-plex-sans-condensed-latin-600-normal.woff2') format('woff2');}@font-face{font-family:'IBM Plex Sans Condensed';font-weight:700;src:url('../fonts/ibm-plex-sans-condensed-latin-700-normal.woff2') format('woff2');}@font-face{font-family:'IBM Plex Sans';font-weight:300;src:url('../fonts/ibm-plex-sans-latin-300-normal.woff2') format('woff2');}@font-face{font-family:'IBM Plex Sans';font-weight:400;src:url('../fonts/ibm-plex-sans-latin-400-normal.woff2') format('woff2');}@font-face{font-family:'IBM Plex Sans';font-weight:500;src:url('../fonts/ibm-plex-sans-latin-500-normal.woff2') format('woff2');}@font-face{font-family:'IBM Plex Sans';font-weight:600;src:url('../fonts/ibm-plex-sans-latin-600-normal.woff2') format('woff2');}@font-face{font-family:'IBM Plex Sans';font-weight:700;src:url('../fonts/ibm-plex-sans-latin-700-normal.woff2') format('woff2');}@font-face{font-family:'IBM Plex Mono';font-weight:400;src:url('../fonts/ibm-plex-mono-latin-400-normal.woff2') format('woff2');}@font-face{font-family:'IBM Plex Mono';font-weight:500;src:url('../fonts/ibm-plex-mono-latin-500-normal.woff2') format('woff2');}@font-face{font-family:'Space Grotesk';font-weight:400;src:url('../fonts/space-grotesk-latin-400-normal.woff2') format('woff2');}@font-face{font-family:'Space Grotesk';font-weight:500;src:url('../fonts/space-grotesk-latin-500-normal.woff2') format('woff2');}@font-face{font-family:'Space Grotesk';font-weight:600;src:url('../fonts/space-grotesk-latin-600-normal.woff2') format('woff2');}@font-face{font-family:'Space Grotesk';font-weight:700;src:url('../fonts/space-grotesk-latin-700-normal.woff2') format('woff2');}</style><defs><marker id="e-syncL" viewBox="0 0 10 10" refX="9" refY="5" markerWidth="7" markerHeight="7" orient="auto" markerUnits="userSpaceOnUse"><path d="M0,0 L10,5 L0,10 L2.5,5 Z" fill="#0B1B2B"/></marker><marker id="s-syncL" viewBox="0 0 10 10" refX="1" refY="5" markerWidth="7" markerHeight="7" orient="auto" markerUnits="userSpaceOnUse"><path d="M10,0 L0,5 L10,10 L7.5,5 Z" fill="#0B1B2B"/></marker><marker id="e-syncD" viewBox="0 0 10 10" refX="9" refY="5" markerWidth="7" markerHeight="7" orient="auto" markerUnits="userSpaceOnUse"><path d="M0,0 L10,5 L0,10 L2.5,5 Z" fill="#DCE6F2"/></marker><marker id="s-syncD" viewBox="0 0 10 10" refX="1" refY="5" markerWidth="7" markerHeight="7" orient="auto" markerUnits="userSpaceOnUse"><path d="M10,0 L0,5 L10,10 L7.5,5 Z" fill="#DCE6F2"/></marker><marker id="e-asyncL" viewBox="0 0 10 10" refX="9" refY="5" markerWidth="7" markerHeight="7" orient="auto" markerUnits="userSpaceOnUse"><path d="M0,0 L10,5 L0,10 L2.5,5 Z" fill="#35C2D0"/></marker><marker id="s-asyncL" viewBox="0 0 10 10" refX="1" refY="5" markerWidth="7" markerHeight="7" orient="auto" markerUnits="userSpaceOnUse"><path d="M10,0 L0,5 L10,10 L7.5,5 Z" fill="#35C2D0"/></marker><marker id="e-asyncD" viewBox="0 0 10 10" refX="9" refY="5" markerWidth="7" markerHeight="7" orient="auto" markerUnits="userSpaceOnUse"><path d="M0,0 L10,5 L0,10 L2.5,5 Z" fill="#35C2D0"/></marker><marker id="s-asyncD" viewBox="0 0 10 10" refX="1" refY="5" markerWidth="7" markerHeight="7" orient="auto" markerUnits="userSpaceOnUse"><path d="M10,0 L0,5 L10,10 L7.5,5 Z" fill="#35C2D0"/></marker><marker id="e-dataL" viewBox="0 0 10 10" refX="9" refY="5" markerWidth="7" markerHeight="7" orient="auto" markerUnits="userSpaceOnUse"><path d="M1,1 L9,5 L1,9" fill="none" stroke="#2475D0" stroke-width="1.6"/></marker><marker id="s-dataL" viewBox="0 0 10 10" refX="1" refY="5" markerWidth="7" markerHeight="7" orient="auto" markerUnits="userSpaceOnUse"><path d="M9,1 L1,5 L9,9" fill="none" stroke="#2475D0" stroke-width="1.6"/></marker><marker id="e-dataD" viewBox="0 0 10 10" refX="9" refY="5" markerWidth="7" markerHeight="7" orient="auto" markerUnits="userSpaceOnUse"><path d="M1,1 L9,5 L1,9" fill="none" stroke="#6FA8EA" stroke-width="1.6"/></marker><marker id="s-dataD" viewBox="0 0 10 10" refX="1" refY="5" markerWidth="7" markerHeight="7" orient="auto" markerUnits="userSpaceOnUse"><path d="M9,1 L1,5 L9,9" fill="none" stroke="#6FA8EA" stroke-width="1.6"/></marker><marker id="e-obsL" viewBox="0 0 10 10" refX="9" refY="5" markerWidth="7" markerHeight="7" orient="auto" markerUnits="userSpaceOnUse"><path d="M1,1 L9,5 L1,9" fill="none" stroke="#8A99AB" stroke-width="1.6"/></marker><marker id="s-obsL" viewBox="0 0 10 10" refX="1" refY="5" markerWidth="7" markerHeight="7" orient="auto" markerUnits="userSpaceOnUse"><path d="M9,1 L1,5 L9,9" fill="none" stroke="#8A99AB" stroke-width="1.6"/></marker><marker id="e-obsD" viewBox="0 0 10 10" refX="9" refY="5" markerWidth="7" markerHeight="7" orient="auto" markerUnits="userSpaceOnUse"><path d="M1,1 L9,5 L1,9" fill="none" stroke="#7F92A8" stroke-width="1.6"/></marker><marker id="s-obsD" viewBox="0 0 10 10" refX="1" refY="5" markerWidth="7" markerHeight="7" orient="auto" markerUnits="userSpaceOnUse"><path d="M9,1 L1,5 L9,9" fill="none" stroke="#7F92A8" stroke-width="1.6"/></marker><marker id="e-humanL" viewBox="0 0 10 10" refX="9" refY="5" markerWidth="7" markerHeight="7" orient="auto" markerUnits="userSpaceOnUse"><path d="M0,0 L10,5 L0,10 L2.5,5 Z" fill="#B7791F"/></marker><marker id="s-humanL" viewBox="0 0 10 10" refX="1" refY="5" markerWidth="7" markerHeight="7" orient="auto" markerUnits="userSpaceOnUse"><path d="M10,0 L0,5 L10,10 L7.5,5 Z" fill="#B7791F"/></marker><marker id="e-humanD" viewBox="0 0 10 10" refX="9" refY="5" markerWidth="7" markerHeight="7" orient="auto" markerUnits="userSpaceOnUse"><path d="M0,0 L10,5 L0,10 L2.5,5 Z" fill="#F2B84B"/></marker><marker id="s-humanD" viewBox="0 0 10 10" refX="1" refY="5" markerWidth="7" markerHeight="7" orient="auto" markerUnits="userSpaceOnUse"><path d="M10,0 L0,5 L10,10 L7.5,5 Z" fill="#F2B84B"/></marker><marker id="e-feedbackL" viewBox="0 0 10 10" refX="9" refY="5" markerWidth="7" markerHeight="7" orient="auto" markerUnits="userSpaceOnUse"><path d="M0,0 L10,5 L0,10 L2.5,5 Z" fill="#238A75"/></marker><marker id="s-feedbackL" viewBox="0 0 10 10" refX="1" refY="5" markerWidth="7" markerHeight="7" orient="auto" markerUnits="userSpaceOnUse"><path d="M10,0 L0,5 L10,10 L7.5,5 Z" fill="#238A75"/></marker><marker id="e-feedbackD" viewBox="0 0 10 10" refX="9" refY="5" markerWidth="7" markerHeight="7" orient="auto" markerUnits="userSpaceOnUse"><path d="M0,0 L10,5 L0,10 L2.5,5 Z" fill="#63D3B0"/></marker><marker id="s-feedbackD" viewBox="0 0 10 10" refX="1" refY="5" markerWidth="7" markerHeight="7" orient="auto" markerUnits="userSpaceOnUse"><path d="M10,0 L0,5 L10,10 L7.5,5 Z" fill="#63D3B0"/></marker><marker id="e-prohibitedL" viewBox="0 0 10 10" refX="9" refY="5" markerWidth="7" markerHeight="7" orient="auto" markerUnits="userSpaceOnUse"><path d="M1,1 L9,9 M9,1 L1,9" stroke="#F07861" stroke-width="1.8"/></marker><marker id="s-prohibitedL" viewBox="0 0 10 10" refX="1" refY="5" markerWidth="7" markerHeight="7" orient="auto" markerUnits="userSpaceOnUse"><path d="M1,1 L9,9 M9,1 L1,9" stroke="#F07861" stroke-width="1.8"/></marker><marker id="e-prohibitedD" viewBox="0 0 10 10" refX="9" refY="5" markerWidth="7" markerHeight="7" orient="auto" markerUnits="userSpaceOnUse"><path d="M1,1 L9,9 M9,1 L1,9" stroke="#F07861" stroke-width="1.8"/></marker><marker id="s-prohibitedD" viewBox="0 0 10 10" refX="1" refY="5" markerWidth="7" markerHeight="7" orient="auto" markerUnits="userSpaceOnUse"><path d="M1,1 L9,9 M9,1 L1,9" stroke="#F07861" stroke-width="1.8"/></marker><marker id="e-proposedL" viewBox="0 0 10 10" refX="9" refY="5" markerWidth="7" markerHeight="7" orient="auto" markerUnits="userSpaceOnUse"><path d="M0,0 L10,5 L0,10 L2.5,5 Z" fill="#7B61D9"/></marker><marker id="s-proposedL" viewBox="0 0 10 10" refX="1" refY="5" markerWidth="7" markerHeight="7" orient="auto" markerUnits="userSpaceOnUse"><path d="M10,0 L0,5 L10,10 L7.5,5 Z" fill="#7B61D9"/></marker><marker id="e-proposedD" viewBox="0 0 10 10" refX="9" refY="5" markerWidth="7" markerHeight="7" orient="auto" markerUnits="userSpaceOnUse"><path d="M0,0 L10,5 L0,10 L2.5,5 Z" fill="#A996F0"/></marker><marker id="s-proposedD" viewBox="0 0 10 10" refX="1" refY="5" markerWidth="7" markerHeight="7" orient="auto" markerUnits="userSpaceOnUse"><path d="M10,0 L0,5 L10,10 L7.5,5 Z" fill="#A996F0"/></marker><pattern id="hatch" width="6" height="6" patternUnits="userSpaceOnUse" patternTransform="rotate(45)"><line x1="0" y1="0" x2="0" y2="6" stroke="#F07861" stroke-width="1" opacity="0.35"/></pattern><pattern id="grid" width="24" height="24" patternUnits="userSpaceOnUse"><path d="M24,0 L0,0 0,24" fill="none" stroke="#1A3A5C" stroke-width="0.5" opacity="0.55"/></pattern></defs><rect x="14.0" y="46.0" width="238.0" height="220.0" rx="10" fill="#EEF1F5" stroke="#5B6B7F" stroke-width="0.9"/><rect x="26.0" y="39.0" width="126.2" height="14.0" rx="7" fill="#FFFFFF" stroke="#5B6B7F" stroke-width="0.8"/><text x="33.0" y="49.2" font-family="'IBM Plex Mono', 'DejaVu Sans'" font-size="9" font-weight="500" fill="#5B6B7F" text-anchor="start" letter-spacing="1.2">LOCAL DEVELOPMENT</text><rect x="272.0" y="46.0" width="238.0" height="220.0" rx="10" fill="#EAF2FC" stroke="#2475D0" stroke-width="0.9"/><rect x="284.0" y="39.0" width="159.2" height="14.0" rx="7" fill="#FFFFFF" stroke="#2475D0" stroke-width="0.8"/><text x="291.0" y="49.2" font-family="'IBM Plex Mono', 'DejaVu Sans'" font-size="9" font-weight="500" fill="#2475D0" text-anchor="start" letter-spacing="1.2">CONTINUOUS INTEGRATION</text><rect x="530.0" y="46.0" width="238.0" height="220.0" rx="10" fill="#E6F8FA" stroke="#35C2D0" stroke-width="0.9"/><rect x="542.0" y="39.0" width="60.2" height="14.0" rx="7" fill="#FFFFFF" stroke="#35C2D0" stroke-width="0.8"/><text x="549.0" y="49.2" font-family="'IBM Plex Mono', 'DejaVu Sans'" font-size="9" font-weight="500" fill="#35C2D0" text-anchor="start" letter-spacing="1.2">STAGING</text><rect x="788.0" y="46.0" width="238.0" height="220.0" rx="10" fill="#FDF4E1" stroke="#F2B84B" stroke-width="0.9"/><rect x="800.0" y="39.0" width="80.0" height="14.0" rx="7" fill="#FFFFFF" stroke="#F2B84B" stroke-width="0.8"/><text x="807.0" y="49.2" font-family="'IBM Plex Mono', 'DejaVu Sans'" font-size="9" font-weight="500" fill="#F2B84B" text-anchor="start" letter-spacing="1.2">PRODUCTION</text><rect x="28.0" y="66.0" width="210.0" height="90.0" rx="7" fill="#FFFFFF" stroke="#5B6B7F" stroke-width="1.2"/><path d="M28.6,73.0 Q28.6,66.6 35.0,66.6 L35.0,155.4 Q28.6,155.4 28.6,149.0 Z" fill="#5B6B7F"/><rect x="28.6" y="66.6" width="4.2" height="88.8" rx="1.5" fill="#5B6B7F" stroke="none" stroke-width="1"/><text x="40.0" y="85.5" font-family="'IBM Plex Sans Condensed', 'DejaVu Sans'" font-size="11.5" font-weight="600" fill="#0B1B2B" text-anchor="start">docker-compose</text><text x="40.0" y="100.1" font-family="'IBM Plex Mono', 'DejaVu Sans'" font-size="8.6" font-weight="400" fill="#5B6B7F" text-anchor="start">infra/docker-compose.yml</text><text x="40.0" y="117.2" font-family="'IBM Plex Sans Condensed', 'DejaVu Sans'" font-size="9.5" font-weight="400" fill="#3A4A5C" text-anchor="start">PostgreSQL 16 · Redis 7 · MinIO · Neo4j 5</text><text x="40.0" y="129.3" font-family="'IBM Plex Sans Condensed', 'DejaVu Sans'" font-size="9.5" font-weight="400" fill="#3A4A5C" text-anchor="start">(started but unused — F1)</text><rect x="28.0" y="168.0" width="210.0" height="88.0" rx="7" fill="#FFFFFF" stroke="#5B6B7F" stroke-width="1.2"/><path d="M28.6,175.0 Q28.6,168.6 35.0,168.6 L35.0,255.4 Q28.6,255.4 28.6,249.0 Z" fill="#5B6B7F"/><rect x="28.6" y="168.6" width="4.2" height="86.8" rx="1.5" fill="#5B6B7F" stroke="none" stroke-width="1"/><text x="40.0" y="187.5" font-family="'IBM Plex Sans Condensed', 'DejaVu Sans'" font-size="11.5" font-weight="600" fill="#0B1B2B" text-anchor="start">uvicorn · next dev</text><text x="40.0" y="202.1" font-family="'IBM Plex Mono', 'DejaVu Sans'" font-size="8.6" font-weight="400" fill="#5B6B7F" text-anchor="start">README · .env.example</text><text x="40.0" y="219.2" font-family="'IBM Plex Sans Condensed', 'DejaVu Sans'" font-size="9.5" font-weight="400" fill="#3A4A5C" text-anchor="start">seed scripts for QA, HUMS, browser harness;</text><text x="40.0" y="231.3" font-family="'IBM Plex Sans Condensed', 'DejaVu Sans'" font-size="9.5" font-weight="400" fill="#3A4A5C" text-anchor="start">platform admin bootstrap script</text><rect x="286.0" y="66.0" width="210.0" height="108.0" rx="7" fill="#FFFFFF" stroke="#2475D0" stroke-width="1.2"/><path d="M286.6,73.0 Q286.6,66.6 293.0,66.6 L293.0,173.4 Q286.6,173.4 286.6,167.0 Z" fill="#2475D0"/><rect x="286.6" y="66.6" width="4.2" height="106.8" rx="1.5" fill="#2475D0" stroke="none" stroke-width="1"/><text x="298.0" y="85.5" font-family="'IBM Plex Sans Condensed', 'DejaVu Sans'" font-size="11.5" font-weight="600" fill="#0B1B2B" text-anchor="start">GitHub Actions · backend</text><text x="298.0" y="100.1" font-family="'IBM Plex Mono', 'DejaVu Sans'" font-size="8.6" font-weight="400" fill="#5B6B7F" text-anchor="start">.github/workflows/ci.yml</text><text x="298.0" y="117.2" font-family="'IBM Plex Sans Condensed', 'DejaVu Sans'" font-size="9.5" font-weight="400" fill="#3A4A5C" text-anchor="start">ruff · mypy · alembic upgrade · pytest on</text><text x="298.0" y="129.3" font-family="'IBM Plex Sans Condensed', 'DejaVu Sans'" font-size="9.5" font-weight="400" fill="#3A4A5C" text-anchor="start">Python 3.11 + PostgreSQL 16 · pip-audit</text><text x="298.0" y="141.5" font-family="'IBM Plex Sans Condensed', 'DejaVu Sans'" font-size="9.5" font-weight="400" fill="#3A4A5C" text-anchor="start">(non-blocking). One test needs 3.12 (F9).</text><rect x="286.0" y="184.0" width="210.0" height="74.0" rx="7" fill="#FFFFFF" stroke="#2475D0" stroke-width="1.2"/><path d="M286.6,191.0 Q286.6,184.6 293.0,184.6 L293.0,257.4 Q286.6,257.4 286.6,251.0 Z" fill="#2475D0"/><rect x="286.6" y="184.6" width="4.2" height="72.8" rx="1.5" fill="#2475D0" stroke="none" stroke-width="1"/><text x="298.0" y="203.5" font-family="'IBM Plex Sans Condensed', 'DejaVu Sans'" font-size="11.5" font-weight="600" fill="#0B1B2B" text-anchor="start">GitHub Actions · frontend</text><text x="298.0" y="218.1" font-family="'IBM Plex Mono', 'DejaVu Sans'" font-size="8.6" font-weight="400" fill="#5B6B7F" text-anchor="start">npm lint · typecheck · build</text><text x="298.0" y="235.2" font-family="'IBM Plex Sans Condensed', 'DejaVu Sans'" font-size="9.5" font-weight="400" fill="#3A4A5C" text-anchor="start">vitest (383 tests) not run in CI · npm audit</text><text x="298.0" y="247.3" font-family="'IBM Plex Sans Condensed', 'DejaVu Sans'" font-size="9.5" font-weight="400" fill="#3A4A5C" text-anchor="start">non-blocking</text><rect x="544.0" y="66.0" width="210.0" height="56.0" rx="7" fill="#FFFFFF" stroke="#5B6B7F" stroke-width="1.2" stroke-dasharray="1 3"/><path d="M544.6,73.0 Q544.6,66.6 551.0,66.6 L551.0,121.4 Q544.6,121.4 544.6,115.0 Z" fill="#35C2D0"/><rect x="544.6" y="66.6" width="4.2" height="54.8" rx="1.5" fill="#35C2D0" stroke="none" stroke-width="1"/><text x="556.0" y="85.5" font-family="'IBM Plex Sans Condensed', 'DejaVu Sans'" font-size="11.5" font-weight="600" fill="#0B1B2B" text-anchor="start">Frontend</text><text x="556.0" y="100.1" font-family="'IBM Plex Mono', 'DejaVu Sans'" font-size="8.6" font-weight="400" fill="#5B6B7F" text-anchor="start">Vercel project &#x27;aerocomply&#x27;</text><text x="556.0" y="111.3" font-family="'IBM Plex Mono', 'DejaVu Sans'" font-size="8.6" font-weight="400" fill="#5B6B7F" text-anchor="start">(reported)</text><rect x="544.0" y="132.0" width="210.0" height="56.0" rx="7" fill="#FFFFFF" stroke="#5B6B7F" stroke-width="1.2" stroke-dasharray="1 3"/><path d="M544.6,139.0 Q544.6,132.6 551.0,132.6 L551.0,187.4 Q544.6,187.4 544.6,181.0 Z" fill="#35C2D0"/><rect x="544.6" y="132.6" width="4.2" height="54.8" rx="1.5" fill="#35C2D0" stroke="none" stroke-width="1"/><text x="556.0" y="151.5" font-family="'IBM Plex Sans Condensed', 'DejaVu Sans'" font-size="11.5" font-weight="600" fill="#0B1B2B" text-anchor="start">Backend container</text><text x="556.0" y="166.1" font-family="'IBM Plex Mono', 'DejaVu Sans'" font-size="8.6" font-weight="400" fill="#5B6B7F" text-anchor="start">Dockerfile → Render (reported)</text><rect x="544.0" y="198.0" width="210.0" height="58.0" rx="7" fill="#FFFFFF" stroke="#5B6B7F" stroke-width="1.2" stroke-dasharray="1 3"/><path d="M544.6,205.0 Q544.6,198.6 551.0,198.6 L551.0,255.4 Q544.6,255.4 544.6,249.0 Z" fill="#35C2D0"/><rect x="544.6" y="198.6" width="4.2" height="56.8" rx="1.5" fill="#35C2D0" stroke="none" stroke-width="1"/><text x="556.0" y="217.5" font-family="'IBM Plex Sans Condensed', 'DejaVu Sans'" font-size="11.5" font-weight="600" fill="#0B1B2B" text-anchor="start">Database</text><text x="556.0" y="232.1" font-family="'IBM Plex Mono', 'DejaVu Sans'" font-size="8.6" font-weight="400" fill="#5B6B7F" text-anchor="start">managed PostgreSQL · Neon</text><text x="556.0" y="243.3" font-family="'IBM Plex Mono', 'DejaVu Sans'" font-size="8.6" font-weight="400" fill="#5B6B7F" text-anchor="start">(reported)</text><rect x="802.0" y="66.0" width="210.0" height="88.0" rx="7" fill="#FFFFFF" stroke="#7B61D9" stroke-width="1.2" stroke-dasharray="2 4"/><path d="M802.6,73.0 Q802.6,66.6 809.0,66.6 L809.0,153.4 Q802.6,153.4 802.6,147.0 Z" fill="#F2B84B"/><rect x="802.6" y="66.6" width="4.2" height="86.8" rx="1.5" fill="#F2B84B" stroke="none" stroke-width="1"/><text x="814.0" y="85.5" font-family="'IBM Plex Sans Condensed', 'DejaVu Sans'" font-size="11.5" font-weight="600" fill="#0B1B2B" text-anchor="start">Production topology</text><text x="814.0" y="100.1" font-family="'IBM Plex Mono', 'DejaVu Sans'" font-size="8.6" font-weight="400" fill="#5B6B7F" text-anchor="start">API ×N · worker · listeners</text><text x="814.0" y="117.2" font-family="'IBM Plex Sans Condensed', 'DejaVu Sans'" font-size="9.5" font-weight="400" fill="#3A4A5C" text-anchor="start">Shared Redis for rate limits; separate worker</text><text x="814.0" y="129.3" font-family="'IBM Plex Sans Condensed', 'DejaVu Sans'" font-size="9.5" font-weight="400" fill="#3A4A5C" text-anchor="start">and listener processes; private DB network.</text><rect x="802.0" y="164.0" width="210.0" height="94.0" rx="7" fill="#FFFFFF" stroke="#2475D0" stroke-width="1.2" stroke-dasharray="7 4"/><path d="M802.6,171.0 Q802.6,164.6 809.0,164.6 L809.0,257.4 Q802.6,257.4 802.6,251.0 Z" fill="#F2B84B"/><rect x="802.6" y="164.6" width="4.2" height="92.8" rx="1.5" fill="#F2B84B" stroke="none" stroke-width="1"/><text x="814.0" y="183.5" font-family="'IBM Plex Sans Condensed', 'DejaVu Sans'" font-size="11.5" font-weight="600" fill="#0B1B2B" text-anchor="start">Preflight &amp; go-live</text><text x="814.0" y="198.1" font-family="'IBM Plex Mono', 'DejaVu Sans'" font-size="8.6" font-weight="400" fill="#5B6B7F" text-anchor="start">production_preflight.sql ·</text><text x="814.0" y="209.3" font-family="'IBM Plex Mono', 'DejaVu Sans'" font-size="8.6" font-weight="400" fill="#5B6B7F" text-anchor="start">checklist</text><text x="814.0" y="226.4" font-family="'IBM Plex Sans Condensed', 'DejaVu Sans'" font-size="9.5" font-weight="400" fill="#3A4A5C" text-anchor="start">Never touched by this audit. Pen test, capacity</text><text x="814.0" y="238.5" font-family="'IBM Plex Sans Condensed', 'DejaVu Sans'" font-size="9.5" font-weight="400" fill="#3A4A5C" text-anchor="start">test, payment provider and UAT outstanding.</text><path d="M238.0,110.0 L286.0,110.0" fill="none" stroke="#0B1B2B" stroke-width="1.6" stroke-linecap="round" marker-end="url(#e-syncL)"/><path d="M496.0,120.0 L512.0,120.0 Q520.0,120.0 520.0,112.0 L520.0,102.0 Q520.0,94.0 528.0,94.0 L544.0,94.0" fill="none" stroke="#0B1B2B" stroke-width="1.6" stroke-linecap="round" marker-end="url(#e-syncL)"/><path d="M496.0,120.0 L512.0,120.0 Q520.0,120.0 520.0,128.0 L520.0,152.0 Q520.0,160.0 528.0,160.0 L544.0,160.0" fill="none" stroke="#0B1B2B" stroke-width="1.6" stroke-linecap="round" marker-end="url(#e-syncL)"/><path d="M754.0,160.0 L770.0,160.0 Q778.0,160.0 778.0,152.0 L778.0,118.0 Q778.0,110.0 786.0,110.0 L802.0,110.0" fill="none" stroke="#7B61D9" stroke-width="1.6" stroke-dasharray="2 4" stroke-linecap="round" marker-end="url(#e-proposedL)"/><rect x="14.0" y="292.0" width="1012.0" height="136.0" rx="10" fill="#E9F9F3" stroke="#63D3B0" stroke-width="0.9"/><rect x="26.0" y="285.0" width="291.2" height="14.0" rx="7" fill="#FFFFFF" stroke="#63D3B0" stroke-width="0.8"/><text x="33.0" y="295.2" font-family="'IBM Plex Mono', 'DejaVu Sans'" font-size="9" font-weight="500" fill="#63D3B0" text-anchor="start" letter-spacing="1.2">OPERATIONS — RESPONSIBILITIES AND EVIDENCE</text><rect x="28.0" y="312.0" width="134.0" height="104.0" rx="7" fill="#FFFFFF" stroke="#63D3B0" stroke-width="1.2"/><path d="M28.6,319.0 Q28.6,312.6 35.0,312.6 L35.0,415.4 Q28.6,415.4 28.6,409.0 Z" fill="#63D3B0"/><rect x="28.6" y="312.6" width="4.2" height="102.8" rx="1.5" fill="#63D3B0" stroke="none" stroke-width="1"/><text x="40.0" y="331.5" font-family="'IBM Plex Sans Condensed', 'DejaVu Sans'" font-size="11.5" font-weight="600" fill="#0B1B2B" text-anchor="start">Migrations</text><text x="40.0" y="348.7" font-family="'IBM Plex Sans Condensed', 'DejaVu Sans'" font-size="9.2" font-weight="400" fill="#3A4A5C" text-anchor="start">separate step before rollout;</text><text x="40.0" y="360.5" font-family="'IBM Plex Sans Condensed', 'DejaVu Sans'" font-size="9.2" font-weight="400" fill="#3A4A5C" text-anchor="start">never on container start; drift</text><text x="40.0" y="372.3" font-family="'IBM Plex Sans Condensed', 'DejaVu Sans'" font-size="9.2" font-weight="400" fill="#3A4A5C" text-anchor="start">guard; up/down/up verified</text><rect x="170.0" y="312.0" width="134.0" height="104.0" rx="7" fill="#FFFFFF" stroke="#63D3B0" stroke-width="1.2"/><path d="M170.6,319.0 Q170.6,312.6 177.0,312.6 L177.0,415.4 Q170.6,415.4 170.6,409.0 Z" fill="#63D3B0"/><rect x="170.6" y="312.6" width="4.2" height="102.8" rx="1.5" fill="#63D3B0" stroke="none" stroke-width="1"/><text x="182.0" y="331.5" font-family="'IBM Plex Sans Condensed', 'DejaVu Sans'" font-size="11.5" font-weight="600" fill="#0B1B2B" text-anchor="start">Secrets &amp;</text><text x="182.0" y="344.7" font-family="'IBM Plex Sans Condensed', 'DejaVu Sans'" font-size="11.5" font-weight="600" fill="#0B1B2B" text-anchor="start">config</text><text x="182.0" y="361.9" font-family="'IBM Plex Sans Condensed', 'DejaVu Sans'" font-size="9.2" font-weight="400" fill="#3A4A5C" text-anchor="start">env vars; production config</text><text x="182.0" y="373.7" font-family="'IBM Plex Sans Condensed', 'DejaVu Sans'" font-size="9.2" font-weight="400" fill="#3A4A5C" text-anchor="start">guards refuse unsafe</text><text x="182.0" y="385.5" font-family="'IBM Plex Sans Condensed', 'DejaVu Sans'" font-size="9.2" font-weight="400" fill="#3A4A5C" text-anchor="start">defaults</text><rect x="312.0" y="312.0" width="134.0" height="104.0" rx="7" fill="#FFFFFF" stroke="#63D3B0" stroke-width="1.2"/><path d="M312.6,319.0 Q312.6,312.6 319.0,312.6 L319.0,415.4 Q312.6,415.4 312.6,409.0 Z" fill="#63D3B0"/><rect x="312.6" y="312.6" width="4.2" height="102.8" rx="1.5" fill="#63D3B0" stroke="none" stroke-width="1"/><text x="324.0" y="331.5" font-family="'IBM Plex Sans Condensed', 'DejaVu Sans'" font-size="11.5" font-weight="600" fill="#0B1B2B" text-anchor="start">Monitoring</text><text x="324.0" y="348.7" font-family="'IBM Plex Sans Condensed', 'DejaVu Sans'" font-size="9.2" font-weight="400" fill="#3A4A5C" text-anchor="start">metrics endpoints +</text><text x="324.0" y="360.5" font-family="'IBM Plex Sans Condensed', 'DejaVu Sans'" font-size="9.2" font-weight="400" fill="#3A4A5C" text-anchor="start">readiness; no scrape / alert</text><text x="324.0" y="372.3" font-family="'IBM Plex Sans Condensed', 'DejaVu Sans'" font-size="9.2" font-weight="400" fill="#3A4A5C" text-anchor="start">stack in repo</text><rect x="454.0" y="312.0" width="134.0" height="104.0" rx="7" fill="#FFFFFF" stroke="#5B6B7F" stroke-width="1.2" stroke-dasharray="1 3"/><path d="M454.6,319.0 Q454.6,312.6 461.0,312.6 L461.0,415.4 Q454.6,415.4 454.6,409.0 Z" fill="#63D3B0"/><rect x="454.6" y="312.6" width="4.2" height="102.8" rx="1.5" fill="#63D3B0" stroke="none" stroke-width="1"/><text x="466.0" y="331.5" font-family="'IBM Plex Sans Condensed', 'DejaVu Sans'" font-size="11.5" font-weight="600" fill="#0B1B2B" text-anchor="start">Backup</text><text x="466.0" y="348.7" font-family="'IBM Plex Sans Condensed', 'DejaVu Sans'" font-size="9.2" font-weight="400" fill="#3A4A5C" text-anchor="start">provider snapshots; RPO /</text><text x="466.0" y="360.5" font-family="'IBM Plex Sans Condensed', 'DejaVu Sans'" font-size="9.2" font-weight="400" fill="#3A4A5C" text-anchor="start">RTO targets documented, not</text><text x="466.0" y="372.3" font-family="'IBM Plex Sans Condensed', 'DejaVu Sans'" font-size="9.2" font-weight="400" fill="#3A4A5C" text-anchor="start">evidenced</text><rect x="596.0" y="312.0" width="134.0" height="104.0" rx="7" fill="#FFFFFF" stroke="#2475D0" stroke-width="1.2" stroke-dasharray="7 4"/><path d="M596.6,319.0 Q596.6,312.6 603.0,312.6 L603.0,415.4 Q596.6,415.4 596.6,409.0 Z" fill="#63D3B0"/><rect x="596.6" y="312.6" width="4.2" height="102.8" rx="1.5" fill="#63D3B0" stroke="none" stroke-width="1"/><text x="608.0" y="331.5" font-family="'IBM Plex Sans Condensed', 'DejaVu Sans'" font-size="11.5" font-weight="600" fill="#0B1B2B" text-anchor="start">Restore</text><text x="608.0" y="348.7" font-family="'IBM Plex Sans Condensed', 'DejaVu Sans'" font-size="9.2" font-weight="400" fill="#3A4A5C" text-anchor="start">pg_restore + alembic check +</text><text x="608.0" y="360.5" font-family="'IBM Plex Sans Condensed', 'DejaVu Sans'" font-size="9.2" font-weight="400" fill="#3A4A5C" text-anchor="start">smoke test runbook</text><rect x="738.0" y="312.0" width="134.0" height="104.0" rx="7" fill="#FFFFFF" stroke="#2475D0" stroke-width="1.2" stroke-dasharray="7 4"/><path d="M738.6,319.0 Q738.6,312.6 745.0,312.6 L745.0,415.4 Q738.6,415.4 738.6,409.0 Z" fill="#63D3B0"/><rect x="738.6" y="312.6" width="4.2" height="102.8" rx="1.5" fill="#63D3B0" stroke="none" stroke-width="1"/><text x="750.0" y="331.5" font-family="'IBM Plex Sans Condensed', 'DejaVu Sans'" font-size="11.5" font-weight="600" fill="#0B1B2B" text-anchor="start">Rollback</text><text x="750.0" y="348.7" font-family="'IBM Plex Sans Condensed', 'DejaVu Sans'" font-size="9.2" font-weight="400" fill="#3A4A5C" text-anchor="start">image rollback; migration</text><text x="750.0" y="360.5" font-family="'IBM Plex Sans Condensed', 'DejaVu Sans'" font-size="9.2" font-weight="400" fill="#3A4A5C" text-anchor="start">downgrade caveat at 0047</text><rect x="880.0" y="312.0" width="134.0" height="104.0" rx="7" fill="#FFFFFF" stroke="#63D3B0" stroke-width="1.2"/><path d="M880.6,319.0 Q880.6,312.6 887.0,312.6 L887.0,415.4 Q880.6,415.4 880.6,409.0 Z" fill="#63D3B0"/><rect x="880.6" y="312.6" width="4.2" height="102.8" rx="1.5" fill="#63D3B0" stroke="none" stroke-width="1"/><text x="892.0" y="331.5" font-family="'IBM Plex Sans Condensed', 'DejaVu Sans'" font-size="11.5" font-weight="600" fill="#0B1B2B" text-anchor="start">Incident</text><text x="892.0" y="344.7" font-family="'IBM Plex Sans Condensed', 'DejaVu Sans'" font-size="11.5" font-weight="600" fill="#0B1B2B" text-anchor="start">response</text><text x="892.0" y="361.9" font-family="'IBM Plex Sans Condensed', 'DejaVu Sans'" font-size="9.2" font-weight="400" fill="#3A4A5C" text-anchor="start">runbook + hypercare service;</text><text x="892.0" y="373.7" font-family="'IBM Plex Sans Condensed', 'DejaVu Sans'" font-size="9.2" font-weight="400" fill="#3A4A5C" text-anchor="start">on-call not defined</text><text x="14.0" y="22.0" font-family="'IBM Plex Mono', 'DejaVu Sans'" font-size="9" font-weight="500" fill="#5B6B7F" text-anchor="start" letter-spacing="1.4">D13 · DEPLOYMENT &amp; OPERATIONS</text><text x="1026.0" y="22.0" font-family="'IBM Plex Mono', 'DejaVu Sans'" font-size="9" font-weight="500" fill="#5B6B7F" text-anchor="end" letter-spacing="1.2">HYBRID · HOSTING REPORTED, NOT VERIFIED</text><rect x="173.6" y="72.0" width="58.4" height="15.0" rx="7.5" fill="#FFFFFF" stroke="#238A75" stroke-width="0.9"/><path d="M179.74,79.50 L181.76,81.52 L185.62,77.32" fill="none" stroke="#238A75" stroke-width="1.08" stroke-linecap="round" stroke-linejoin="round"/><text x="207.8" y="82.4" font-family="'IBM Plex Mono', 'DejaVu Sans'" font-size="8" font-weight="500" fill="#238A75" text-anchor="middle">VERIFIED</text><rect x="173.6" y="174.0" width="58.4" height="15.0" rx="7.5" fill="#FFFFFF" stroke="#238A75" stroke-width="0.9"/><path d="M179.74,181.50 L181.76,183.52 L185.62,179.32" fill="none" stroke="#238A75" stroke-width="1.08" stroke-linecap="round" stroke-linejoin="round"/><text x="207.8" y="184.4" font-family="'IBM Plex Mono', 'DejaVu Sans'" font-size="8" font-weight="500" fill="#238A75" text-anchor="middle">VERIFIED</text><rect x="436.4" y="72.0" width="53.6" height="15.0" rx="7.5" fill="#FFFFFF" stroke="#B7791F" stroke-width="0.9"/><circle cx="445.40" cy="79.50" r="2.86" fill="none" stroke="#B7791F" stroke-width="0.75"/><path d="M445.40,76.64 A2.86,2.86 0 0 1 445.40,82.36 Z" fill="#B7791F"/><text x="468.2" y="82.4" font-family="'IBM Plex Mono', 'DejaVu Sans'" font-size="8" font-weight="500" fill="#B7791F" text-anchor="middle">PARTIAL</text><rect x="436.4" y="190.0" width="53.6" height="15.0" rx="7.5" fill="#FFFFFF" stroke="#B7791F" stroke-width="0.9"/><circle cx="445.40" cy="197.50" r="2.86" fill="none" stroke="#B7791F" stroke-width="0.75"/><path d="M445.40,194.64 A2.86,2.86 0 0 1 445.40,200.36 Z" fill="#B7791F"/><text x="468.2" y="200.4" font-family="'IBM Plex Mono', 'DejaVu Sans'" font-size="8" font-weight="500" fill="#B7791F" text-anchor="middle">PARTIAL</text><rect x="699.2" y="72.0" width="48.8" height="15.0" rx="7.5" fill="#FFFFFF" stroke="#5B6B7F" stroke-width="0.9"/><circle cx="708.20" cy="79.50" r="2.86" fill="none" stroke="#5B6B7F" stroke-width="0.75" stroke-dasharray="1.2 1.2"/><circle cx="708.20" cy="79.50" r="0.94" fill="#5B6B7F"/><text x="728.6" y="82.4" font-family="'IBM Plex Mono', 'DejaVu Sans'" font-size="8" font-weight="500" fill="#5B6B7F" text-anchor="middle">VERIFY</text><rect x="699.2" y="138.0" width="48.8" height="15.0" rx="7.5" fill="#FFFFFF" stroke="#5B6B7F" stroke-width="0.9"/><circle cx="708.20" cy="145.50" r="2.86" fill="none" stroke="#5B6B7F" stroke-width="0.75" stroke-dasharray="1.2 1.2"/><circle cx="708.20" cy="145.50" r="0.94" fill="#5B6B7F"/><text x="728.6" y="148.4" font-family="'IBM Plex Mono', 'DejaVu Sans'" font-size="8" font-weight="500" fill="#5B6B7F" text-anchor="middle">VERIFY</text><rect x="699.2" y="204.0" width="48.8" height="15.0" rx="7.5" fill="#FFFFFF" stroke="#5B6B7F" stroke-width="0.9"/><circle cx="708.20" cy="211.50" r="2.86" fill="none" stroke="#5B6B7F" stroke-width="0.75" stroke-dasharray="1.2 1.2"/><circle cx="708.20" cy="211.50" r="0.94" fill="#5B6B7F"/><text x="728.6" y="214.4" font-family="'IBM Plex Mono', 'DejaVu Sans'" font-size="8" font-weight="500" fill="#5B6B7F" text-anchor="middle">VERIFY</text><rect x="947.6" y="72.0" width="58.4" height="15.0" rx="7.5" fill="#FFFFFF" stroke="#7B61D9" stroke-width="0.9"/><path d="M953.74,79.50 H959.46 M956.60,76.64 V82.36" stroke="#7B61D9" stroke-width="1.08" stroke-linecap="round"/><text x="981.8" y="82.4" font-family="'IBM Plex Mono', 'DejaVu Sans'" font-size="8" font-weight="500" fill="#7B61D9" text-anchor="middle">PROPOSED</text><rect x="947.6" y="170.0" width="58.4" height="15.0" rx="7.5" fill="#FFFFFF" stroke="#2475D0" stroke-width="0.9"/><path d="M956.60,174.14 L959.96,177.50 L956.60,180.86 L953.24,177.50 Z" fill="none" stroke="#2475D0" stroke-width="0.81"/><text x="981.8" y="180.4" font-family="'IBM Plex Mono', 'DejaVu Sans'" font-size="8" font-weight="500" fill="#2475D0" text-anchor="middle">DESIGNED</text><rect x="238.8" y="102.2" width="46.4" height="15.6" rx="7.8" fill="#FFFFFF" stroke="#0B1B2B" stroke-width="0.8"/><text x="262.0" y="113.1" font-family="'IBM Plex Sans Condensed', 'DejaVu Sans'" font-size="8.6" font-weight="500" fill="#0B1B2B" text-anchor="middle">push / PR</text><rect x="756.9" y="127.2" width="42.3" height="15.6" rx="7.8" fill="#FFFFFF" stroke="#7B61D9" stroke-width="0.8"/><text x="778.0" y="138.1" font-family="'IBM Plex Sans Condensed', 'DejaVu Sans'" font-size="8.6" font-weight="500" fill="#7B61D9" text-anchor="middle">promote</text><rect x="97.6" y="318.0" width="58.4" height="15.0" rx="7.5" fill="#FFFFFF" stroke="#238A75" stroke-width="0.9"/><path d="M103.74,325.50 L105.76,327.52 L109.62,323.32" fill="none" stroke="#238A75" stroke-width="1.08" stroke-linecap="round" stroke-linejoin="round"/><text x="131.8" y="328.4" font-family="'IBM Plex Mono', 'DejaVu Sans'" font-size="8" font-weight="500" fill="#238A75" text-anchor="middle">VERIFIED</text><rect x="244.4" y="318.0" width="53.6" height="15.0" rx="7.5" fill="#FFFFFF" stroke="#B7791F" stroke-width="0.9"/><circle cx="253.40" cy="325.50" r="2.86" fill="none" stroke="#B7791F" stroke-width="0.75"/><path d="M253.40,322.64 A2.86,2.86 0 0 1 253.40,328.36 Z" fill="#B7791F"/><text x="276.2" y="328.4" font-family="'IBM Plex Mono', 'DejaVu Sans'" font-size="8" font-weight="500" fill="#B7791F" text-anchor="middle">PARTIAL</text><rect x="386.4" y="318.0" width="53.6" height="15.0" rx="7.5" fill="#FFFFFF" stroke="#B7791F" stroke-width="0.9"/><circle cx="395.40" cy="325.50" r="2.86" fill="none" stroke="#B7791F" stroke-width="0.75"/><path d="M395.40,322.64 A2.86,2.86 0 0 1 395.40,328.36 Z" fill="#B7791F"/><text x="418.2" y="328.4" font-family="'IBM Plex Mono', 'DejaVu Sans'" font-size="8" font-weight="500" fill="#B7791F" text-anchor="middle">PARTIAL</text><rect x="533.2" y="318.0" width="48.8" height="15.0" rx="7.5" fill="#FFFFFF" stroke="#5B6B7F" stroke-width="0.9"/><circle cx="542.20" cy="325.50" r="2.86" fill="none" stroke="#5B6B7F" stroke-width="0.75" stroke-dasharray="1.2 1.2"/><circle cx="542.20" cy="325.50" r="0.94" fill="#5B6B7F"/><text x="562.6" y="328.4" font-family="'IBM Plex Mono', 'DejaVu Sans'" font-size="8" font-weight="500" fill="#5B6B7F" text-anchor="middle">VERIFY</text><rect x="665.6" y="318.0" width="58.4" height="15.0" rx="7.5" fill="#FFFFFF" stroke="#2475D0" stroke-width="0.9"/><path d="M674.60,322.14 L677.96,325.50 L674.60,328.86 L671.24,325.50 Z" fill="none" stroke="#2475D0" stroke-width="0.81"/><text x="699.8" y="328.4" font-family="'IBM Plex Mono', 'DejaVu Sans'" font-size="8" font-weight="500" fill="#2475D0" text-anchor="middle">DESIGNED</text><rect x="807.6" y="318.0" width="58.4" height="15.0" rx="7.5" fill="#FFFFFF" stroke="#2475D0" stroke-width="0.9"/><path d="M816.60,322.14 L819.96,325.50 L816.60,328.86 L813.24,325.50 Z" fill="none" stroke="#2475D0" stroke-width="0.81"/><text x="841.8" y="328.4" font-family="'IBM Plex Mono', 'DejaVu Sans'" font-size="8" font-weight="500" fill="#2475D0" text-anchor="middle">DESIGNED</text><rect x="954.4" y="318.0" width="53.6" height="15.0" rx="7.5" fill="#FFFFFF" stroke="#B7791F" stroke-width="0.9"/><circle cx="963.40" cy="325.50" r="2.86" fill="none" stroke="#B7791F" stroke-width="0.75"/><path d="M963.40,322.64 A2.86,2.86 0 0 1 963.40,328.36 Z" fill="#B7791F"/><text x="986.2" y="328.4" font-family="'IBM Plex Mono', 'DejaVu Sans'" font-size="8" font-weight="500" fill="#B7791F" text-anchor="middle">PARTIAL</text></svg>